<svg width="30" height="23" viewBox="0 0 30 23" fill="none" xmlns="http://www.w3.org/2000/svg">
<path d="M19.0834 5.87502C19.0834 5.42398 19.449 5.05835 19.9 5.05835L23.3239 5.05835C23.848 5.05835 24.3403 5.30985 24.6474 5.73452L28.8834 11.5917L19.0834 11.5917V5.87502Z" stroke="#5661CB" stroke-width="1.63333" stroke-linecap="round" stroke-linejoin="round"/>
<path d="M19.0834 11.5917V10.775C18.6323 10.775 18.2667 11.1406 18.2667 11.5917H19.0834ZM28.8834 11.5917H29.7C29.7 11.1406 29.3344 10.775 28.8834 10.775V11.5917ZM19.0834 18.125H18.2667C18.2667 18.576 18.6323 18.9417 19.0834 18.9417V18.125ZM21.0779 18.125V18.9417C21.4439 18.9417 21.7651 18.6983 21.8641 18.346L21.0779 18.125ZM21.1951 17.7867L21.9496 18.0993L21.9496 18.0993L21.1951 17.7867ZM22.8284 16.1534L22.5159 15.3989L22.5159 15.3989L22.8284 16.1534ZM25.1383 16.1534L25.4508 15.3989L25.4508 15.3989L25.1383 16.1534ZM26.7716 17.7867L27.5261 17.4742L27.5261 17.4742L26.7716 17.7867ZM26.8888 18.125L26.1026 18.346C26.2016 18.6983 26.5229 18.9417 26.8888 18.9417V18.125ZM28.8834 18.125V18.9417C29.3344 18.9417 29.7 18.576 29.7 18.125H28.8834ZM19.0834 12.4083L28.8834 12.4083V10.775L19.0834 10.775V12.4083ZM19.9 18.125V11.5917H18.2667V18.125H19.9ZM21.0779 17.3083H19.0834V18.9417H21.0779V17.3083ZM21.8641 18.346C21.8876 18.2626 21.9161 18.1802 21.9496 18.0993L20.4406 17.4742C20.3822 17.6151 20.3326 17.7586 20.2917 17.904L21.8641 18.346ZM21.9496 18.0993C22.173 17.5599 22.6016 17.1313 23.1409 16.9079L22.5159 15.3989C21.5763 15.7881 20.8298 16.5346 20.4406 17.4742L21.9496 18.0993ZM23.1409 16.9079C23.6803 16.6845 24.2864 16.6845 24.8258 16.9079L25.4508 15.3989C24.5112 15.0097 23.4555 15.0097 22.5159 15.3989L23.1409 16.9079ZM24.8258 16.9079C25.3652 17.1313 25.7937 17.5599 26.0171 18.0993L27.5261 17.4742C27.1369 16.5346 26.3904 15.7881 25.4508 15.3989L24.8258 16.9079ZM26.0171 18.0992C26.0507 18.1802 26.0791 18.2626 26.1026 18.346L27.675 17.904C27.6341 17.7586 27.5845 17.6151 27.5261 17.4742L26.0171 18.0992ZM28.8834 17.3083H26.8888V18.9417H28.8834V17.3083ZM28.0667 11.5917V18.125H29.7V11.5917H28.0667Z" fill="#5661CB"/>
<path d="M22.8284 16.1534C23.5679 15.8471 24.3988 15.8471 25.1383 16.1534V16.1534C25.8778 16.4597 26.4653 17.0472 26.7716 17.7867V17.7867C27.0779 18.5262 27.0779 19.3571 26.7716 20.0966V20.0966C26.4653 20.8361 25.8778 21.4236 25.1383 21.7299V21.7299C24.3988 22.0362 23.5679 22.0362 22.8284 21.7299V21.7299C22.0889 21.4236 21.5014 20.8361 21.1951 20.0966V20.0966C20.8888 19.3571 20.8888 18.5262 21.1951 17.7867V17.7867C21.5014 17.0472 22.0889 16.4597 22.8284 16.1534V16.1534Z" stroke="#5661CB" stroke-width="1.63333" stroke-linecap="round" stroke-linejoin="round"/>
<path d="M1.1167 18.125H0.300033C0.300033 18.576 0.665667 18.9416 1.1167 18.9416V18.125ZM3.51962 18.125V18.9416C3.88553 18.9416 4.20678 18.6982 4.30581 18.346L3.51962 18.125ZM3.63676 17.7867L4.39126 18.0993L4.39126 18.0993L3.63676 17.7867ZM5.27009 16.1534L5.58261 16.9079L5.58262 16.9079L5.27009 16.1534ZM7.57997 16.1534L7.26745 16.9079L7.26745 16.9079L7.57997 16.1534ZM9.21331 17.7867L9.96781 17.4742L9.96781 17.4742L9.21331 17.7867ZM9.33044 18.125L8.54425 18.346C8.64328 18.6982 8.96453 18.9416 9.33044 18.9416L9.33044 18.125ZM19.0834 18.125V18.9416C19.5344 18.9416 19.9 18.576 19.9 18.125H19.0834ZM1.93337 3.42496C1.93337 2.97393 2.299 2.60829 2.75003 2.60829V0.974959C1.39694 0.974959 0.300033 2.07186 0.300033 3.42496H1.93337ZM1.93337 18.125L1.93337 3.42496H0.300033L0.300033 18.125H1.93337ZM3.51962 17.3083H1.1167L1.1167 18.9416H3.51962V17.3083ZM4.30581 18.346C4.32926 18.2626 4.35774 18.1802 4.39126 18.0993L2.88226 17.4742C2.82391 17.6151 2.77429 17.7586 2.73343 17.9039L4.30581 18.346ZM4.39126 18.0993C4.61468 17.5599 5.04323 17.1313 5.58261 16.9079L4.95757 15.3989C4.01796 15.7881 3.27145 16.5346 2.88226 17.4742L4.39126 18.0993ZM5.58262 16.9079C6.12201 16.6845 6.72806 16.6845 7.26745 16.9079L7.8925 15.3989C6.95289 15.0097 5.89717 15.0097 4.95757 15.3989L5.58262 16.9079ZM7.26745 16.9079C7.80684 17.1313 8.23538 17.5599 8.4588 18.0993L9.96781 17.4742C9.57861 16.5346 8.8321 15.7881 7.8925 15.3989L7.26745 16.9079ZM8.4588 18.0993C8.49232 18.1802 8.5208 18.2626 8.54425 18.346L10.1166 17.9039C10.0758 17.7586 10.0262 17.6151 9.96781 17.4742L8.4588 18.0993ZM19.0834 17.3083L9.33044 17.3083L9.33044 18.9416L19.0834 18.9416V17.3083ZM18.2667 3.42496L18.2667 18.125H19.9L19.9 3.42496L18.2667 3.42496ZM17.45 2.60829C17.9011 2.60829 18.2667 2.97393 18.2667 3.42496L19.9 3.42496C19.9 2.07186 18.8031 0.974959 17.45 0.974959V2.60829ZM2.75003 2.60829L17.45 2.60829V0.974959L2.75003 0.974959V2.60829Z" fill="#5661CB"/>
<path d="M5.27005 16.1534C6.00955 15.8471 6.84044 15.8471 7.57993 16.1534V16.1534C8.31943 16.4597 8.90696 17.0472 9.21327 17.7867V17.7867C9.51958 18.5262 9.51958 19.3571 9.21327 20.0966V20.0966C8.90696 20.8361 8.31943 21.4236 7.57993 21.7299V21.7299C6.84044 22.0362 6.00955 22.0362 5.27005 21.7299V21.7299C4.53055 21.4236 3.94303 20.8361 3.63672 20.0966V20.0966C3.33041 19.3571 3.33041 18.5262 3.63672 17.7867V17.7867C3.94303 17.0472 4.53055 16.4597 5.27005 16.1534V16.1534Z" stroke="#5661CB" stroke-width="1.63333" stroke-linecap="round" stroke-linejoin="round"/>
</svg>
