<svg width="132" height="23" viewBox="0 0 132 23" fill="none" xmlns="http://www.w3.org/2000/svg">
<rect width="132" height="23" fill="white"/>
<path d="M0 0H132C127.252 11 126.777 11 132 23H0V0Z" fill="#27AE60" fill-opacity="0.9"/>
<path d="M20.5059 7.46875V16H19.3809V8.39453H15.1738V16H14.043V7.46875H20.5059ZM23.4766 10.8789V18.4375H22.3867V9.66016H23.3828L23.4766 10.8789ZM27.748 12.7773V12.9004C27.748 13.3613 27.6934 13.7891 27.584 14.1836C27.4746 14.5742 27.3145 14.9141 27.1035 15.2031C26.8965 15.4922 26.6406 15.7168 26.3359 15.877C26.0312 16.0371 25.6816 16.1172 25.2871 16.1172C24.8848 16.1172 24.5293 16.0508 24.2207 15.918C23.9121 15.7852 23.6504 15.5918 23.4355 15.3379C23.2207 15.084 23.0488 14.7793 22.9199 14.4238C22.7949 14.0684 22.709 13.668 22.6621 13.2227V12.5664C22.709 12.0977 22.7969 11.6777 22.9258 11.3066C23.0547 10.9355 23.2246 10.6191 23.4355 10.3574C23.6504 10.0918 23.9102 9.89062 24.2148 9.75391C24.5195 9.61328 24.8711 9.54297 25.2695 9.54297C25.668 9.54297 26.0215 9.62109 26.3301 9.77734C26.6387 9.92969 26.8984 10.1484 27.1094 10.4336C27.3203 10.7188 27.4785 11.0605 27.584 11.459C27.6934 11.8535 27.748 12.293 27.748 12.7773ZM26.6582 12.9004V12.7773C26.6582 12.4609 26.625 12.1641 26.5586 11.8867C26.4922 11.6055 26.3887 11.3594 26.248 11.1484C26.1113 10.9336 25.9355 10.7656 25.7207 10.6445C25.5059 10.5195 25.25 10.457 24.9531 10.457C24.6797 10.457 24.4414 10.5039 24.2383 10.5977C24.0391 10.6914 23.8691 10.8184 23.7285 10.9785C23.5879 11.1348 23.4727 11.3145 23.3828 11.5176C23.2969 11.7168 23.2324 11.9238 23.1895 12.1387V13.6562C23.2676 13.9297 23.377 14.1875 23.5176 14.4297C23.6582 14.668 23.8457 14.8613 24.0801 15.0098C24.3145 15.1543 24.6094 15.2266 24.9648 15.2266C25.2578 15.2266 25.5098 15.166 25.7207 15.0449C25.9355 14.9199 26.1113 14.75 26.248 14.5352C26.3887 14.3203 26.4922 14.0742 26.5586 13.7969C26.625 13.5156 26.6582 13.2168 26.6582 12.9004ZM30.3027 14.2832L33.2266 9.66016H34.3164V16H33.2266V11.377L30.3027 16H29.2246V9.66016H30.3027V14.2832ZM39.0332 13.2109H36.9531L36.9414 12.3438H38.6406C38.9766 12.3438 39.2559 12.3105 39.4785 12.2441C39.7051 12.1777 39.875 12.0781 39.9883 11.9453C40.1016 11.8125 40.1582 11.6484 40.1582 11.4531C40.1582 11.3008 40.125 11.168 40.0586 11.0547C39.9961 10.9375 39.9004 10.8418 39.7715 10.7676C39.6426 10.6895 39.4824 10.6328 39.291 10.5977C39.1035 10.5586 38.8828 10.5391 38.6289 10.5391H37.2402V16H36.1562V9.66016H38.6289C39.0312 9.66016 39.3926 9.69531 39.7129 9.76562C40.0371 9.83594 40.3125 9.94336 40.5391 10.0879C40.7695 10.2285 40.9453 10.4082 41.0664 10.627C41.1875 10.8457 41.248 11.1035 41.248 11.4004C41.248 11.5918 41.209 11.7734 41.1309 11.9453C41.0527 12.1172 40.9375 12.2695 40.7852 12.4023C40.6328 12.5352 40.4453 12.6445 40.2227 12.7305C40 12.8125 39.7441 12.8652 39.4551 12.8887L39.0332 13.2109ZM39.0332 16H36.5605L37.0996 15.1211H39.0332C39.334 15.1211 39.584 15.084 39.7832 15.0098C39.9824 14.9316 40.1309 14.8223 40.2285 14.6816C40.3301 14.5371 40.3809 14.3652 40.3809 14.166C40.3809 13.9668 40.3301 13.7969 40.2285 13.6562C40.1309 13.5117 39.9824 13.4023 39.7832 13.3281C39.584 13.25 39.334 13.2109 39.0332 13.2109H37.3867L37.3984 12.3438H39.4551L39.8477 12.6719C40.1953 12.6992 40.4902 12.7852 40.7324 12.9297C40.9746 13.0742 41.1582 13.2578 41.2832 13.4805C41.4082 13.6992 41.4707 13.9375 41.4707 14.1953C41.4707 14.4922 41.4141 14.7539 41.3008 14.9805C41.1914 15.207 41.0312 15.3965 40.8203 15.5488C40.6094 15.6973 40.3535 15.8105 40.0527 15.8887C39.752 15.9629 39.4121 16 39.0332 16ZM45.5547 16.1172C45.1133 16.1172 44.7129 16.043 44.3535 15.8945C43.998 15.7422 43.6914 15.5293 43.4336 15.2559C43.1797 14.9824 42.9844 14.6582 42.8477 14.2832C42.7109 13.9082 42.6426 13.498 42.6426 13.0527V12.8066C42.6426 12.291 42.7188 11.832 42.8711 11.4297C43.0234 11.0234 43.2305 10.6797 43.4922 10.3984C43.7539 10.1172 44.0508 9.9043 44.3828 9.75977C44.7148 9.61523 45.0586 9.54297 45.4141 9.54297C45.8672 9.54297 46.2578 9.62109 46.5859 9.77734C46.918 9.93359 47.1895 10.1523 47.4004 10.4336C47.6113 10.7109 47.7676 11.0391 47.8691 11.418C47.9707 11.793 48.0215 12.2031 48.0215 12.6484V13.1348H43.2871V12.25H46.9375V12.168C46.9219 11.8867 46.8633 11.6133 46.7617 11.3477C46.6641 11.082 46.5078 10.8633 46.293 10.6914C46.0781 10.5195 45.7852 10.4336 45.4141 10.4336C45.168 10.4336 44.9414 10.4863 44.7344 10.5918C44.5273 10.6934 44.3496 10.8457 44.2012 11.0488C44.0527 11.252 43.9375 11.5 43.8555 11.793C43.7734 12.0859 43.7324 12.4238 43.7324 12.8066V13.0527C43.7324 13.3535 43.7734 13.6367 43.8555 13.9023C43.9414 14.1641 44.0645 14.3945 44.2246 14.5938C44.3887 14.793 44.5859 14.9492 44.8164 15.0625C45.0508 15.1758 45.3164 15.2324 45.6133 15.2324C45.9961 15.2324 46.3203 15.1543 46.5859 14.998C46.8516 14.8418 47.084 14.6328 47.2832 14.3711L47.9395 14.8926C47.8027 15.0996 47.6289 15.2969 47.418 15.4844C47.207 15.6719 46.9473 15.8242 46.6387 15.9414C46.334 16.0586 45.9727 16.1172 45.5547 16.1172ZM51.6543 12.9707H50.4883V12.3027H51.5664C51.8672 12.3027 52.1055 12.2656 52.2812 12.1914C52.457 12.1133 52.582 12.0059 52.6562 11.8691C52.7305 11.7324 52.7676 11.5723 52.7676 11.3887C52.7676 11.2246 52.7246 11.0703 52.6387 10.9258C52.5566 10.7773 52.4238 10.6582 52.2402 10.5684C52.0566 10.4746 51.8105 10.4277 51.502 10.4277C51.252 10.4277 51.0254 10.4727 50.8223 10.5625C50.6191 10.6484 50.457 10.7676 50.3359 10.9199C50.2188 11.0684 50.1602 11.2363 50.1602 11.4238H49.0762C49.0762 11.0371 49.1855 10.7051 49.4043 10.4277C49.627 10.1465 49.9219 9.92969 50.2891 9.77734C50.6602 9.625 51.0645 9.54883 51.502 9.54883C51.8691 9.54883 52.1973 9.58984 52.4863 9.67188C52.7793 9.75 53.0273 9.86719 53.2305 10.0234C53.4336 10.1758 53.5879 10.3672 53.6934 10.5977C53.8027 10.8242 53.8574 11.0879 53.8574 11.3887C53.8574 11.6035 53.8066 11.8066 53.7051 11.998C53.6035 12.1895 53.457 12.3594 53.2656 12.5078C53.0742 12.6523 52.8418 12.7656 52.5684 12.8477C52.2988 12.9297 51.9941 12.9707 51.6543 12.9707ZM50.4883 12.5605H51.6543C52.0332 12.5605 52.3672 12.5977 52.6562 12.6719C52.9453 12.7422 53.1875 12.8477 53.3828 12.9883C53.5781 13.1289 53.7246 13.3027 53.8223 13.5098C53.9238 13.7129 53.9746 13.9473 53.9746 14.2129C53.9746 14.5098 53.9141 14.7773 53.793 15.0156C53.6758 15.25 53.5078 15.4492 53.2891 15.6133C53.0703 15.7773 52.8086 15.9023 52.5039 15.9883C52.2031 16.0742 51.8691 16.1172 51.502 16.1172C51.0918 16.1172 50.6934 16.0469 50.3066 15.9062C49.9199 15.7656 49.6016 15.5488 49.3516 15.2559C49.1016 14.959 48.9766 14.582 48.9766 14.125H50.0605C50.0605 14.3164 50.1211 14.498 50.2422 14.6699C50.3633 14.8418 50.5312 14.9805 50.7461 15.0859C50.9648 15.1914 51.2168 15.2441 51.502 15.2441C51.8066 15.2441 52.0605 15.1973 52.2637 15.1035C52.4668 15.0098 52.6191 14.8848 52.7207 14.7285C52.8262 14.5723 52.8789 14.4023 52.8789 14.2188C52.8789 13.9805 52.832 13.7891 52.7383 13.6445C52.6445 13.5 52.5 13.3945 52.3047 13.3281C52.1133 13.2578 51.8672 13.2227 51.5664 13.2227H50.4883V12.5605ZM58.0117 16.1172C57.5703 16.1172 57.1699 16.043 56.8105 15.8945C56.4551 15.7422 56.1484 15.5293 55.8906 15.2559C55.6367 14.9824 55.4414 14.6582 55.3047 14.2832C55.168 13.9082 55.0996 13.498 55.0996 13.0527V12.8066C55.0996 12.291 55.1758 11.832 55.3281 11.4297C55.4805 11.0234 55.6875 10.6797 55.9492 10.3984C56.2109 10.1172 56.5078 9.9043 56.8398 9.75977C57.1719 9.61523 57.5156 9.54297 57.8711 9.54297C58.3242 9.54297 58.7148 9.62109 59.043 9.77734C59.375 9.93359 59.6465 10.1523 59.8574 10.4336C60.0684 10.7109 60.2246 11.0391 60.3262 11.418C60.4277 11.793 60.4785 12.2031 60.4785 12.6484V13.1348H55.7441V12.25H59.3945V12.168C59.3789 11.8867 59.3203 11.6133 59.2188 11.3477C59.1211 11.082 58.9648 10.8633 58.75 10.6914C58.5352 10.5195 58.2422 10.4336 57.8711 10.4336C57.625 10.4336 57.3984 10.4863 57.1914 10.5918C56.9844 10.6934 56.8066 10.8457 56.6582 11.0488C56.5098 11.252 56.3945 11.5 56.3125 11.793C56.2305 12.0859 56.1895 12.4238 56.1895 12.8066V13.0527C56.1895 13.3535 56.2305 13.6367 56.3125 13.9023C56.3984 14.1641 56.5215 14.3945 56.6816 14.5938C56.8457 14.793 57.043 14.9492 57.2734 15.0625C57.5078 15.1758 57.7734 15.2324 58.0703 15.2324C58.4531 15.2324 58.7773 15.1543 59.043 14.998C59.3086 14.8418 59.541 14.6328 59.7402 14.3711L60.3965 14.8926C60.2598 15.0996 60.0859 15.2969 59.875 15.4844C59.6641 15.6719 59.4043 15.8242 59.0957 15.9414C58.791 16.0586 58.4297 16.1172 58.0117 16.1172ZM65.3887 14.5586L67.5449 9.66016H68.5879L65.7637 16H65.0137L62.2012 9.66016H63.2441L65.3887 14.5586ZM62.9277 9.66016V16H61.8438V9.66016H62.9277ZM67.8145 16V9.66016H68.9043V16H67.8145ZM76.1641 15.2266C76.4219 15.2266 76.6602 15.1738 76.8789 15.0684C77.0977 14.9629 77.2773 14.8184 77.418 14.6348C77.5586 14.4473 77.6387 14.2344 77.6582 13.9961H78.6895C78.6699 14.3711 78.543 14.7207 78.3086 15.0449C78.0781 15.3652 77.7754 15.625 77.4004 15.8242C77.0254 16.0195 76.6133 16.1172 76.1641 16.1172C75.6875 16.1172 75.2715 16.0332 74.916 15.8652C74.5645 15.6973 74.2715 15.4668 74.0371 15.1738C73.8066 14.8809 73.6328 14.5449 73.5156 14.166C73.4023 13.7832 73.3457 13.3789 73.3457 12.9531V12.707C73.3457 12.2812 73.4023 11.8789 73.5156 11.5C73.6328 11.1172 73.8066 10.7793 74.0371 10.4863C74.2715 10.1934 74.5645 9.96289 74.916 9.79492C75.2715 9.62695 75.6875 9.54297 76.1641 9.54297C76.6602 9.54297 77.0938 9.64453 77.4648 9.84766C77.8359 10.0469 78.127 10.3203 78.3379 10.668C78.5527 11.0117 78.6699 11.4023 78.6895 11.8398H77.6582C77.6387 11.5781 77.5645 11.3418 77.4355 11.1309C77.3105 10.9199 77.1387 10.752 76.9199 10.627C76.7051 10.498 76.4531 10.4336 76.1641 10.4336C75.832 10.4336 75.5527 10.5 75.3262 10.6328C75.1035 10.7617 74.9258 10.9375 74.793 11.1602C74.6641 11.3789 74.5703 11.623 74.5117 11.8926C74.457 12.1582 74.4297 12.4297 74.4297 12.707V12.9531C74.4297 13.2305 74.457 13.5039 74.5117 13.7734C74.5664 14.043 74.6582 14.2871 74.7871 14.5059C74.9199 14.7246 75.0977 14.9004 75.3203 15.0332C75.5469 15.1621 75.8281 15.2266 76.1641 15.2266ZM82.5391 16.1172C82.0977 16.1172 81.6973 16.043 81.3379 15.8945C80.9824 15.7422 80.6758 15.5293 80.418 15.2559C80.1641 14.9824 79.9688 14.6582 79.832 14.2832C79.6953 13.9082 79.627 13.498 79.627 13.0527V12.8066C79.627 12.291 79.7031 11.832 79.8555 11.4297C80.0078 11.0234 80.2148 10.6797 80.4766 10.3984C80.7383 10.1172 81.0352 9.9043 81.3672 9.75977C81.6992 9.61523 82.043 9.54297 82.3984 9.54297C82.8516 9.54297 83.2422 9.62109 83.5703 9.77734C83.9023 9.93359 84.1738 10.1523 84.3848 10.4336C84.5957 10.7109 84.752 11.0391 84.8535 11.418C84.9551 11.793 85.0059 12.2031 85.0059 12.6484V13.1348H80.2715V12.25H83.9219V12.168C83.9062 11.8867 83.8477 11.6133 83.7461 11.3477C83.6484 11.082 83.4922 10.8633 83.2773 10.6914C83.0625 10.5195 82.7695 10.4336 82.3984 10.4336C82.1523 10.4336 81.9258 10.4863 81.7188 10.5918C81.5117 10.6934 81.334 10.8457 81.1855 11.0488C81.0371 11.252 80.9219 11.5 80.8398 11.793C80.7578 12.0859 80.7168 12.4238 80.7168 12.8066V13.0527C80.7168 13.3535 80.7578 13.6367 80.8398 13.9023C80.9258 14.1641 81.0488 14.3945 81.209 14.5938C81.373 14.793 81.5703 14.9492 81.8008 15.0625C82.0352 15.1758 82.3008 15.2324 82.5977 15.2324C82.9805 15.2324 83.3047 15.1543 83.5703 14.998C83.8359 14.8418 84.0684 14.6328 84.2676 14.3711L84.9238 14.8926C84.7871 15.0996 84.6133 15.2969 84.4023 15.4844C84.1914 15.6719 83.9316 15.8242 83.623 15.9414C83.3184 16.0586 82.957 16.1172 82.5391 16.1172ZM90.3672 9.66016V10.5566H87.4375V16H86.3535V9.66016H90.3672ZM90.9062 12.9004V12.7656C90.9062 12.3086 90.9727 11.8848 91.1055 11.4941C91.2383 11.0996 91.4297 10.7578 91.6797 10.4688C91.9297 10.1758 92.2324 9.94922 92.5879 9.78906C92.9434 9.625 93.3418 9.54297 93.7832 9.54297C94.2285 9.54297 94.6289 9.625 94.9844 9.78906C95.3438 9.94922 95.6484 10.1758 95.8984 10.4688C96.1523 10.7578 96.3457 11.0996 96.4785 11.4941C96.6113 11.8848 96.6777 12.3086 96.6777 12.7656V12.9004C96.6777 13.3574 96.6113 13.7812 96.4785 14.1719C96.3457 14.5625 96.1523 14.9043 95.8984 15.1973C95.6484 15.4863 95.3457 15.7129 94.9902 15.877C94.6387 16.0371 94.2402 16.1172 93.7949 16.1172C93.3496 16.1172 92.9492 16.0371 92.5938 15.877C92.2383 15.7129 91.9336 15.4863 91.6797 15.1973C91.4297 14.9043 91.2383 14.5625 91.1055 14.1719C90.9727 13.7812 90.9062 13.3574 90.9062 12.9004ZM91.9902 12.7656V12.9004C91.9902 13.2168 92.0273 13.5156 92.1016 13.7969C92.1758 14.0742 92.2871 14.3203 92.4355 14.5352C92.5879 14.75 92.7773 14.9199 93.0039 15.0449C93.2305 15.166 93.4941 15.2266 93.7949 15.2266C94.0918 15.2266 94.3516 15.166 94.5742 15.0449C94.8008 14.9199 94.9883 14.75 95.1367 14.5352C95.2852 14.3203 95.3965 14.0742 95.4707 13.7969C95.5488 13.5156 95.5879 13.2168 95.5879 12.9004V12.7656C95.5879 12.4531 95.5488 12.1582 95.4707 11.8809C95.3965 11.5996 95.2832 11.3516 95.1309 11.1367C94.9824 10.918 94.7949 10.7461 94.5684 10.6211C94.3457 10.4961 94.084 10.4336 93.7832 10.4336C93.4863 10.4336 93.2246 10.4961 92.998 10.6211C92.7754 10.7461 92.5879 10.918 92.4355 11.1367C92.2871 11.3516 92.1758 11.5996 92.1016 11.8809C92.0273 12.1582 91.9902 12.4531 91.9902 12.7656ZM98.7578 9.66016H99.8418L99.748 12.0332C99.7246 12.6348 99.6562 13.1543 99.543 13.5918C99.4297 14.0293 99.2852 14.4023 99.1094 14.7109C98.9336 15.0156 98.7363 15.2715 98.5176 15.4785C98.3027 15.6855 98.0801 15.8594 97.8496 16H97.3105L97.3398 15.1152L97.5625 15.1094C97.6914 14.957 97.8164 14.8008 97.9375 14.6406C98.0586 14.4766 98.1699 14.2832 98.2715 14.0605C98.373 13.834 98.457 13.5586 98.5234 13.2344C98.5938 12.9062 98.6387 12.5059 98.6582 12.0332L98.7578 9.66016ZM99.0273 9.66016H102.842V16H101.758V10.6621H99.0273V9.66016ZM97.0645 15.1094H103.656V17.8691H102.572V16H98.1484V17.8691H97.0586L97.0645 15.1094ZM109.158 12.4082V13.2871H105.807V12.4082H109.158ZM106.035 9.66016V16H104.951V9.66016H106.035ZM110.037 9.66016V16H108.947V9.66016H110.037ZM113.066 12.9766H114.238L112.404 16H111.232L113.066 12.9766ZM113.975 9.66016H116.623V16H115.539V10.5391H113.975C113.666 10.5391 113.414 10.5918 113.219 10.6973C113.023 10.7988 112.881 10.9316 112.791 11.0957C112.701 11.2598 112.656 11.4297 112.656 11.6055C112.656 11.7773 112.697 11.9434 112.779 12.1035C112.861 12.2598 112.99 12.3887 113.166 12.4902C113.342 12.5918 113.568 12.6426 113.846 12.6426H115.832V13.5332H113.846C113.482 13.5332 113.16 13.4844 112.879 13.3867C112.598 13.2891 112.359 13.1543 112.164 12.9824C111.969 12.8066 111.82 12.6016 111.719 12.3672C111.617 12.1289 111.566 11.8711 111.566 11.5938C111.566 11.3164 111.619 11.0605 111.725 10.8262C111.834 10.5918 111.99 10.3867 112.193 10.2109C112.4 10.0352 112.652 9.90039 112.949 9.80664C113.25 9.70898 113.592 9.66016 113.975 9.66016Z" fill="white"/>
</svg>
