<svg width="109" height="23" viewBox="0 0 109 23" fill="none" xmlns="http://www.w3.org/2000/svg">
<rect width="109" height="23" fill="white"/>
<path d="M0 0H109C105.079 11 104.687 11 109 23H0V0Z" fill="white"/>
<path d="M19.4746 7.46875V8.39453H15.5723V7.46875H19.4746ZM20.4473 7.46875V16H19.3164V7.46875H20.4473ZM15.1855 7.46875H16.3105L16.1172 11.6465C16.0898 12.248 16.043 12.7852 15.9766 13.2578C15.9141 13.7266 15.8242 14.1348 15.707 14.4824C15.5898 14.8262 15.4375 15.1113 15.25 15.3379C15.0625 15.5605 14.832 15.7266 14.5586 15.8359C14.2891 15.9453 13.9648 16 13.5859 16H13.2812V15.0801L13.5156 15.0625C13.7344 15.0469 13.9219 14.998 14.0781 14.916C14.2383 14.8301 14.373 14.7012 14.4824 14.5293C14.5957 14.3574 14.6875 14.1348 14.7578 13.8613C14.8281 13.5879 14.8828 13.2539 14.9219 12.8594C14.9648 12.4609 14.998 11.9961 15.0215 11.4648L15.1855 7.46875ZM23.4941 14.2832L26.418 9.66016H27.5078V16H26.418V11.377L23.4941 16H22.416V9.66016H23.4941V14.2832ZM30.3906 9.66016H31.4746L31.3809 12.0332C31.3574 12.6348 31.2891 13.1543 31.1758 13.5918C31.0625 14.0293 30.918 14.4023 30.7422 14.7109C30.5664 15.0156 30.3691 15.2715 30.1504 15.4785C29.9355 15.6855 29.7129 15.8594 29.4824 16H28.9434L28.9727 15.1152L29.1953 15.1094C29.3242 14.957 29.4492 14.8008 29.5703 14.6406C29.6914 14.4766 29.8027 14.2832 29.9043 14.0605C30.0059 13.834 30.0898 13.5586 30.1562 13.2344C30.2266 12.9062 30.2715 12.5059 30.291 12.0332L30.3906 9.66016ZM30.6602 9.66016H34.4746V16H33.3906V10.6621H30.6602V9.66016ZM28.6973 15.1094H35.2891V17.8691H34.2051V16H29.7812V17.8691H28.6914L28.6973 15.1094ZM39.1211 16.1172C38.6797 16.1172 38.2793 16.043 37.9199 15.8945C37.5645 15.7422 37.2578 15.5293 37 15.2559C36.7461 14.9824 36.5508 14.6582 36.4141 14.2832C36.2773 13.9082 36.209 13.498 36.209 13.0527V12.8066C36.209 12.291 36.2852 11.832 36.4375 11.4297C36.5898 11.0234 36.7969 10.6797 37.0586 10.3984C37.3203 10.1172 37.6172 9.9043 37.9492 9.75977C38.2812 9.61523 38.625 9.54297 38.9805 9.54297C39.4336 9.54297 39.8242 9.62109 40.1523 9.77734C40.4844 9.93359 40.7559 10.1523 40.9668 10.4336C41.1777 10.7109 41.334 11.0391 41.4355 11.418C41.5371 11.793 41.5879 12.2031 41.5879 12.6484V13.1348H36.8535V12.25H40.5039V12.168C40.4883 11.8867 40.4297 11.6133 40.3281 11.3477C40.2305 11.082 40.0742 10.8633 39.8594 10.6914C39.6445 10.5195 39.3516 10.4336 38.9805 10.4336C38.7344 10.4336 38.5078 10.4863 38.3008 10.5918C38.0938 10.6934 37.916 10.8457 37.7676 11.0488C37.6191 11.252 37.5039 11.5 37.4219 11.793C37.3398 12.0859 37.2988 12.4238 37.2988 12.8066V13.0527C37.2988 13.3535 37.3398 13.6367 37.4219 13.9023C37.5078 14.1641 37.6309 14.3945 37.791 14.5938C37.9551 14.793 38.1523 14.9492 38.3828 15.0625C38.6172 15.1758 38.8828 15.2324 39.1797 15.2324C39.5625 15.2324 39.8867 15.1543 40.1523 14.998C40.418 14.8418 40.6504 14.6328 40.8496 14.3711L41.5059 14.8926C41.3691 15.0996 41.1953 15.2969 40.9844 15.4844C40.7734 15.6719 40.5137 15.8242 40.2051 15.9414C39.9004 16.0586 39.5391 16.1172 39.1211 16.1172ZM43.9375 10.8789V18.4375H42.8477V9.66016H43.8438L43.9375 10.8789ZM48.209 12.7773V12.9004C48.209 13.3613 48.1543 13.7891 48.0449 14.1836C47.9355 14.5742 47.7754 14.9141 47.5645 15.2031C47.3574 15.4922 47.1016 15.7168 46.7969 15.877C46.4922 16.0371 46.1426 16.1172 45.748 16.1172C45.3457 16.1172 44.9902 16.0508 44.6816 15.918C44.373 15.7852 44.1113 15.5918 43.8965 15.3379C43.6816 15.084 43.5098 14.7793 43.3809 14.4238C43.2559 14.0684 43.1699 13.668 43.123 13.2227V12.5664C43.1699 12.0977 43.2578 11.6777 43.3867 11.3066C43.5156 10.9355 43.6855 10.6191 43.8965 10.3574C44.1113 10.0918 44.3711 9.89062 44.6758 9.75391C44.9805 9.61328 45.332 9.54297 45.7305 9.54297C46.1289 9.54297 46.4824 9.62109 46.791 9.77734C47.0996 9.92969 47.3594 10.1484 47.5703 10.4336C47.7812 10.7188 47.9395 11.0605 48.0449 11.459C48.1543 11.8535 48.209 12.293 48.209 12.7773ZM47.1191 12.9004V12.7773C47.1191 12.4609 47.0859 12.1641 47.0195 11.8867C46.9531 11.6055 46.8496 11.3594 46.709 11.1484C46.5723 10.9336 46.3965 10.7656 46.1816 10.6445C45.9668 10.5195 45.7109 10.457 45.4141 10.457C45.1406 10.457 44.9023 10.5039 44.6992 10.5977C44.5 10.6914 44.3301 10.8184 44.1895 10.9785C44.0488 11.1348 43.9336 11.3145 43.8438 11.5176C43.7578 11.7168 43.6934 11.9238 43.6504 12.1387V13.6562C43.7285 13.9297 43.8379 14.1875 43.9785 14.4297C44.1191 14.668 44.3066 14.8613 44.541 15.0098C44.7754 15.1543 45.0703 15.2266 45.4258 15.2266C45.7188 15.2266 45.9707 15.166 46.1816 15.0449C46.3965 14.9199 46.5723 14.75 46.709 14.5352C46.8496 14.3203 46.9531 14.0742 47.0195 13.7969C47.0859 13.5156 47.1191 13.2168 47.1191 12.9004ZM56.793 9.66016V10.5566H53.5879V9.66016H56.793ZM53.7461 9.66016V16H52.6621V9.66016H53.7461ZM57.7539 9.66016V16H56.6641V9.66016H57.7539ZM60.5781 10.8789V18.4375H59.4883V9.66016H60.4844L60.5781 10.8789ZM64.8496 12.7773V12.9004C64.8496 13.3613 64.7949 13.7891 64.6855 14.1836C64.5762 14.5742 64.416 14.9141 64.2051 15.2031C63.998 15.4922 63.7422 15.7168 63.4375 15.877C63.1328 16.0371 62.7832 16.1172 62.3887 16.1172C61.9863 16.1172 61.6309 16.0508 61.3223 15.918C61.0137 15.7852 60.752 15.5918 60.5371 15.3379C60.3223 15.084 60.1504 14.7793 60.0215 14.4238C59.8965 14.0684 59.8105 13.668 59.7637 13.2227V12.5664C59.8105 12.0977 59.8984 11.6777 60.0273 11.3066C60.1562 10.9355 60.3262 10.6191 60.5371 10.3574C60.752 10.0918 61.0117 9.89062 61.3164 9.75391C61.6211 9.61328 61.9727 9.54297 62.3711 9.54297C62.7695 9.54297 63.123 9.62109 63.4316 9.77734C63.7402 9.92969 64 10.1484 64.2109 10.4336C64.4219 10.7188 64.5801 11.0605 64.6855 11.459C64.7949 11.8535 64.8496 12.293 64.8496 12.7773ZM63.7598 12.9004V12.7773C63.7598 12.4609 63.7266 12.1641 63.6602 11.8867C63.5938 11.6055 63.4902 11.3594 63.3496 11.1484C63.2129 10.9336 63.0371 10.7656 62.8223 10.6445C62.6074 10.5195 62.3516 10.457 62.0547 10.457C61.7812 10.457 61.543 10.5039 61.3398 10.5977C61.1406 10.6914 60.9707 10.8184 60.8301 10.9785C60.6895 11.1348 60.5742 11.3145 60.4844 11.5176C60.3984 11.7168 60.334 11.9238 60.291 12.1387V13.6562C60.3691 13.9297 60.4785 14.1875 60.6191 14.4297C60.7598 14.668 60.9473 14.8613 61.1816 15.0098C61.416 15.1543 61.7109 15.2266 62.0664 15.2266C62.3594 15.2266 62.6113 15.166 62.8223 15.0449C63.0371 14.9199 63.2129 14.75 63.3496 14.5352C63.4902 14.3203 63.5938 14.0742 63.6602 13.7969C63.7266 13.5156 63.7598 13.2168 63.7598 12.9004ZM65.9453 12.9004V12.7656C65.9453 12.3086 66.0117 11.8848 66.1445 11.4941C66.2773 11.0996 66.4688 10.7578 66.7188 10.4688C66.9688 10.1758 67.2715 9.94922 67.627 9.78906C67.9824 9.625 68.3809 9.54297 68.8223 9.54297C69.2676 9.54297 69.668 9.625 70.0234 9.78906C70.3828 9.94922 70.6875 10.1758 70.9375 10.4688C71.1914 10.7578 71.3848 11.0996 71.5176 11.4941C71.6504 11.8848 71.7168 12.3086 71.7168 12.7656V12.9004C71.7168 13.3574 71.6504 13.7812 71.5176 14.1719C71.3848 14.5625 71.1914 14.9043 70.9375 15.1973C70.6875 15.4863 70.3848 15.7129 70.0293 15.877C69.6777 16.0371 69.2793 16.1172 68.834 16.1172C68.3887 16.1172 67.9883 16.0371 67.6328 15.877C67.2773 15.7129 66.9727 15.4863 66.7188 15.1973C66.4688 14.9043 66.2773 14.5625 66.1445 14.1719C66.0117 13.7812 65.9453 13.3574 65.9453 12.9004ZM67.0293 12.7656V12.9004C67.0293 13.2168 67.0664 13.5156 67.1406 13.7969C67.2148 14.0742 67.3262 14.3203 67.4746 14.5352C67.627 14.75 67.8164 14.9199 68.043 15.0449C68.2695 15.166 68.5332 15.2266 68.834 15.2266C69.1309 15.2266 69.3906 15.166 69.6133 15.0449C69.8398 14.9199 70.0273 14.75 70.1758 14.5352C70.3242 14.3203 70.4355 14.0742 70.5098 13.7969C70.5879 13.5156 70.627 13.2168 70.627 12.9004V12.7656C70.627 12.4531 70.5879 12.1582 70.5098 11.8809C70.4355 11.5996 70.3223 11.3516 70.1699 11.1367C70.0215 10.918 69.834 10.7461 69.6074 10.6211C69.3848 10.4961 69.123 10.4336 68.8223 10.4336C68.5254 10.4336 68.2637 10.4961 68.0371 10.6211C67.8145 10.7461 67.627 10.918 67.4746 11.1367C67.3262 11.3516 67.2148 11.5996 67.1406 11.8809C67.0664 12.1582 67.0293 12.4531 67.0293 12.7656ZM73.7969 9.66016H74.8809L74.7871 12.0332C74.7637 12.6348 74.6953 13.1543 74.582 13.5918C74.4688 14.0293 74.3242 14.4023 74.1484 14.7109C73.9727 15.0156 73.7754 15.2715 73.5566 15.4785C73.3418 15.6855 73.1191 15.8594 72.8887 16H72.3496L72.3789 15.1152L72.6016 15.1094C72.7305 14.957 72.8555 14.8008 72.9766 14.6406C73.0977 14.4766 73.209 14.2832 73.3105 14.0605C73.4121 13.834 73.4961 13.5586 73.5625 13.2344C73.6328 12.9062 73.6777 12.5059 73.6973 12.0332L73.7969 9.66016ZM74.0664 9.66016H77.8809V16H76.7969V10.6621H74.0664V9.66016ZM72.1035 15.1094H78.6953V17.8691H77.6113V16H73.1875V17.8691H72.0977L72.1035 15.1094ZM83.6348 14.916V11.6523C83.6348 11.4023 83.584 11.1855 83.4824 11.002C83.3848 10.8145 83.2363 10.6699 83.0371 10.5684C82.8379 10.4668 82.5918 10.416 82.2988 10.416C82.0254 10.416 81.7852 10.4629 81.5781 10.5566C81.375 10.6504 81.2148 10.7734 81.0977 10.9258C80.9844 11.0781 80.9277 11.2422 80.9277 11.418H79.8438C79.8438 11.1914 79.9023 10.9668 80.0195 10.7441C80.1367 10.5215 80.3047 10.3203 80.5234 10.1406C80.7461 9.95703 81.0117 9.8125 81.3203 9.70703C81.6328 9.59766 81.9805 9.54297 82.3633 9.54297C82.8242 9.54297 83.2305 9.62109 83.582 9.77734C83.9375 9.93359 84.2148 10.1699 84.4141 10.4863C84.6172 10.7988 84.7188 11.1914 84.7188 11.6641V14.6172C84.7188 14.8281 84.7363 15.0527 84.7715 15.291C84.8105 15.5293 84.8672 15.7344 84.9414 15.9062V16H83.8105C83.7559 15.875 83.7129 15.709 83.6816 15.502C83.6504 15.291 83.6348 15.0957 83.6348 14.916ZM83.8223 12.1562L83.834 12.918H82.7383C82.4297 12.918 82.1543 12.9434 81.9121 12.9941C81.6699 13.041 81.4668 13.1133 81.3027 13.2109C81.1387 13.3086 81.0137 13.4316 80.9277 13.5801C80.8418 13.7246 80.7988 13.8945 80.7988 14.0898C80.7988 14.2891 80.8438 14.4707 80.9336 14.6348C81.0234 14.7988 81.1582 14.9297 81.3379 15.0273C81.5215 15.1211 81.7461 15.168 82.0117 15.168C82.3438 15.168 82.6367 15.0977 82.8906 14.957C83.1445 14.8164 83.3457 14.6445 83.4941 14.4414C83.6465 14.2383 83.7285 14.041 83.7402 13.8496L84.2031 14.3711C84.1758 14.5352 84.1016 14.7168 83.9805 14.916C83.8594 15.1152 83.6973 15.3066 83.4941 15.4902C83.2949 15.6699 83.0566 15.8203 82.7793 15.9414C82.5059 16.0586 82.1973 16.1172 81.8535 16.1172C81.4238 16.1172 81.0469 16.0332 80.7227 15.8652C80.4023 15.6973 80.1523 15.4727 79.9727 15.1914C79.7969 14.9062 79.709 14.5879 79.709 14.2363C79.709 13.8965 79.7754 13.5977 79.9082 13.3398C80.041 13.0781 80.2324 12.8613 80.4824 12.6895C80.7324 12.5137 81.0332 12.3809 81.3848 12.291C81.7363 12.2012 82.1289 12.1562 82.5625 12.1562H83.8223ZM88.3457 13.2402L85.9434 9.66016H87.25L88.8906 12.2852H90.1562L89.998 13.2402H88.3457ZM88.9375 13.1289L87.0977 16H85.7266L88.252 12.3438L88.9375 13.1289ZM90.7129 9.66016V16H89.6289V9.66016H90.7129ZM94.4102 9.66016L92.0078 13.2402H90.3555L90.1855 12.2852H91.457L93.0977 9.66016H94.4102ZM93.25 16L91.4043 13.1289L92.1016 12.3438L94.6211 16H93.25Z" fill="white"/>
</svg>
