<svg width="97" height="23" viewBox="0 0 97 23" fill="none" xmlns="http://www.w3.org/2000/svg">
<rect width="97" height="23" fill="white"/>
<path d="M0 0L97 0C93.5108 11 93.1619 11 97 23H0L0 0Z" fill="#DD4747"/>
<path d="M19.4746 7.46875V8.39453H15.5723V7.46875H19.4746ZM20.4473 7.46875V16H19.3164V7.46875H20.4473ZM15.1855 7.46875H16.3105L16.1172 11.6465C16.0898 12.248 16.043 12.7852 15.9766 13.2578C15.9141 13.7266 15.8242 14.1348 15.707 14.4824C15.5898 14.8262 15.4375 15.1113 15.25 15.3379C15.0625 15.5605 14.832 15.7266 14.5586 15.8359C14.2891 15.9453 13.9648 16 13.5859 16H13.2812V15.0801L13.5156 15.0625C13.7344 15.0469 13.9219 14.998 14.0781 14.916C14.2383 14.8301 14.373 14.7012 14.4824 14.5293C14.5957 14.3574 14.6875 14.1348 14.7578 13.8613C14.8281 13.5879 14.8828 13.2539 14.9219 12.8594C14.9648 12.4609 14.998 11.9961 15.0215 11.4648L15.1855 7.46875ZM24.1035 15.3438L25.8672 9.66016H27.0273L24.4844 16.9785C24.4258 17.1348 24.3477 17.3027 24.25 17.4824C24.1562 17.666 24.0352 17.8398 23.8867 18.0039C23.7383 18.168 23.5586 18.3008 23.3477 18.4023C23.1406 18.5078 22.8926 18.5605 22.6035 18.5605C22.5176 18.5605 22.4082 18.5488 22.2754 18.5254C22.1426 18.502 22.0488 18.4824 21.9941 18.4668L21.9883 17.5879C22.0195 17.5918 22.0684 17.5957 22.1348 17.5996C22.2051 17.6074 22.2539 17.6113 22.2812 17.6113C22.5273 17.6113 22.7363 17.5781 22.9082 17.5117C23.0801 17.4492 23.2246 17.3418 23.3418 17.1895C23.4629 17.041 23.5664 16.8359 23.6523 16.5742L24.1035 15.3438ZM22.8086 9.66016L24.4551 14.582L24.7363 15.7246L23.957 16.123L21.625 9.66016H22.8086ZM32.7871 9.66016V16H31.7031V9.66016H32.7871ZM32.418 12.5723V13.4629C32.1992 13.5449 31.9766 13.6191 31.75 13.6855C31.5273 13.748 31.291 13.7988 31.041 13.8379C30.7949 13.873 30.5273 13.8906 30.2383 13.8906C29.7383 13.8906 29.3047 13.8047 28.9375 13.6328C28.5703 13.457 28.2871 13.1934 28.0879 12.8418C27.8887 12.4863 27.7891 12.0391 27.7891 11.5V9.64844H28.873V11.5C28.873 11.8516 28.9258 12.1367 29.0312 12.3555C29.1367 12.5742 29.291 12.7363 29.4941 12.8418C29.6973 12.9434 29.9453 12.9941 30.2383 12.9941C30.5195 12.9941 30.7832 12.9766 31.0293 12.9414C31.2793 12.9023 31.5176 12.8516 31.7441 12.7891C31.9746 12.7266 32.1992 12.6543 32.418 12.5723ZM34.627 9.66016H35.7109V15.1094H38.0312V9.66016H39.1211V15.1094H41.4355V9.66016H42.5195V16H34.627V9.66016ZM47.9863 14.916V11.6523C47.9863 11.4023 47.9355 11.1855 47.834 11.002C47.7363 10.8145 47.5879 10.6699 47.3887 10.5684C47.1895 10.4668 46.9434 10.416 46.6504 10.416C46.377 10.416 46.1367 10.4629 45.9297 10.5566C45.7266 10.6504 45.5664 10.7734 45.4492 10.9258C45.3359 11.0781 45.2793 11.2422 45.2793 11.418H44.1953C44.1953 11.1914 44.2539 10.9668 44.3711 10.7441C44.4883 10.5215 44.6562 10.3203 44.875 10.1406C45.0977 9.95703 45.3633 9.8125 45.6719 9.70703C45.9844 9.59766 46.332 9.54297 46.7148 9.54297C47.1758 9.54297 47.582 9.62109 47.9336 9.77734C48.2891 9.93359 48.5664 10.1699 48.7656 10.4863C48.9688 10.7988 49.0703 11.1914 49.0703 11.6641V14.6172C49.0703 14.8281 49.0879 15.0527 49.123 15.291C49.1621 15.5293 49.2188 15.7344 49.293 15.9062V16H48.1621C48.1074 15.875 48.0645 15.709 48.0332 15.502C48.002 15.291 47.9863 15.0957 47.9863 14.916ZM48.1738 12.1562L48.1855 12.918H47.0898C46.7812 12.918 46.5059 12.9434 46.2637 12.9941C46.0215 13.041 45.8184 13.1133 45.6543 13.2109C45.4902 13.3086 45.3652 13.4316 45.2793 13.5801C45.1934 13.7246 45.1504 13.8945 45.1504 14.0898C45.1504 14.2891 45.1953 14.4707 45.2852 14.6348C45.375 14.7988 45.5098 14.9297 45.6895 15.0273C45.873 15.1211 46.0977 15.168 46.3633 15.168C46.6953 15.168 46.9883 15.0977 47.2422 14.957C47.4961 14.8164 47.6973 14.6445 47.8457 14.4414C47.998 14.2383 48.0801 14.041 48.0918 13.8496L48.5547 14.3711C48.5273 14.5352 48.4531 14.7168 48.332 14.916C48.2109 15.1152 48.0488 15.3066 47.8457 15.4902C47.6465 15.6699 47.4082 15.8203 47.1309 15.9414C46.8574 16.0586 46.5488 16.1172 46.2051 16.1172C45.7754 16.1172 45.3984 16.0332 45.0742 15.8652C44.7539 15.6973 44.5039 15.4727 44.3242 15.1914C44.1484 14.9062 44.0605 14.5879 44.0605 14.2363C44.0605 13.8965 44.127 13.5977 44.2598 13.3398C44.3926 13.0781 44.584 12.8613 44.834 12.6895C45.084 12.5137 45.3848 12.3809 45.7363 12.291C46.0879 12.2012 46.4805 12.1562 46.9141 12.1562H48.1738ZM52.0586 12.9766H53.2305L51.3965 16H50.2246L52.0586 12.9766ZM52.9668 9.66016H55.6152V16H54.5312V10.5391H52.9668C52.6582 10.5391 52.4062 10.5918 52.2109 10.6973C52.0156 10.7988 51.873 10.9316 51.7832 11.0957C51.6934 11.2598 51.6484 11.4297 51.6484 11.6055C51.6484 11.7773 51.6895 11.9434 51.7715 12.1035C51.8535 12.2598 51.9824 12.3887 52.1582 12.4902C52.334 12.5918 52.5605 12.6426 52.8379 12.6426H54.8242V13.5332H52.8379C52.4746 13.5332 52.1523 13.4844 51.8711 13.3867C51.5898 13.2891 51.3516 13.1543 51.1562 12.9824C50.9609 12.8066 50.8125 12.6016 50.7109 12.3672C50.6094 12.1289 50.5586 11.8711 50.5586 11.5938C50.5586 11.3164 50.6113 11.0605 50.7168 10.8262C50.8262 10.5918 50.9824 10.3867 51.1855 10.2109C51.3926 10.0352 51.6445 9.90039 51.9414 9.80664C52.2422 9.70898 52.584 9.66016 52.9668 9.66016ZM60.4316 16V9.66016H61.5156V15.1094H64.4336V9.66016H65.5234V16H60.4316ZM66.2734 15.1094L66.168 17.8809H65.2012V16H64.375V15.1094H66.2734ZM70.082 16.1172C69.6406 16.1172 69.2402 16.043 68.8809 15.8945C68.5254 15.7422 68.2188 15.5293 67.9609 15.2559C67.707 14.9824 67.5117 14.6582 67.375 14.2832C67.2383 13.9082 67.1699 13.498 67.1699 13.0527V12.8066C67.1699 12.291 67.2461 11.832 67.3984 11.4297C67.5508 11.0234 67.7578 10.6797 68.0195 10.3984C68.2812 10.1172 68.5781 9.9043 68.9102 9.75977C69.2422 9.61523 69.5859 9.54297 69.9414 9.54297C70.3945 9.54297 70.7852 9.62109 71.1133 9.77734C71.4453 9.93359 71.7168 10.1523 71.9277 10.4336C72.1387 10.7109 72.2949 11.0391 72.3965 11.418C72.498 11.793 72.5488 12.2031 72.5488 12.6484V13.1348H67.8145V12.25H71.4648V12.168C71.4492 11.8867 71.3906 11.6133 71.2891 11.3477C71.1914 11.082 71.0352 10.8633 70.8203 10.6914C70.6055 10.5195 70.3125 10.4336 69.9414 10.4336C69.6953 10.4336 69.4688 10.4863 69.2617 10.5918C69.0547 10.6934 68.877 10.8457 68.7285 11.0488C68.5801 11.252 68.4648 11.5 68.3828 11.793C68.3008 12.0859 68.2598 12.4238 68.2598 12.8066V13.0527C68.2598 13.3535 68.3008 13.6367 68.3828 13.9023C68.4688 14.1641 68.5918 14.3945 68.752 14.5938C68.916 14.793 69.1133 14.9492 69.3438 15.0625C69.5781 15.1758 69.8438 15.2324 70.1406 15.2324C70.5234 15.2324 70.8477 15.1543 71.1133 14.998C71.3789 14.8418 71.6113 14.6328 71.8105 14.3711L72.4668 14.8926C72.3301 15.0996 72.1562 15.2969 71.9453 15.4844C71.7344 15.6719 71.4746 15.8242 71.166 15.9414C70.8613 16.0586 70.5 16.1172 70.082 16.1172ZM78.1152 12.4082V13.2871H74.7637V12.4082H78.1152ZM74.9922 9.66016V16H73.9082V9.66016H74.9922ZM78.9941 9.66016V16H77.9043V9.66016H78.9941ZM84.4785 14.916V11.6523C84.4785 11.4023 84.4277 11.1855 84.3262 11.002C84.2285 10.8145 84.0801 10.6699 83.8809 10.5684C83.6816 10.4668 83.4355 10.416 83.1426 10.416C82.8691 10.416 82.6289 10.4629 82.4219 10.5566C82.2188 10.6504 82.0586 10.7734 81.9414 10.9258C81.8281 11.0781 81.7715 11.2422 81.7715 11.418H80.6875C80.6875 11.1914 80.7461 10.9668 80.8633 10.7441C80.9805 10.5215 81.1484 10.3203 81.3672 10.1406C81.5898 9.95703 81.8555 9.8125 82.1641 9.70703C82.4766 9.59766 82.8242 9.54297 83.207 9.54297C83.668 9.54297 84.0742 9.62109 84.4258 9.77734C84.7812 9.93359 85.0586 10.1699 85.2578 10.4863C85.4609 10.7988 85.5625 11.1914 85.5625 11.6641V14.6172C85.5625 14.8281 85.5801 15.0527 85.6152 15.291C85.6543 15.5293 85.7109 15.7344 85.7852 15.9062V16H84.6543C84.5996 15.875 84.5566 15.709 84.5254 15.502C84.4941 15.291 84.4785 15.0957 84.4785 14.916ZM84.666 12.1562L84.6777 12.918H83.582C83.2734 12.918 82.998 12.9434 82.7559 12.9941C82.5137 13.041 82.3105 13.1133 82.1465 13.2109C81.9824 13.3086 81.8574 13.4316 81.7715 13.5801C81.6855 13.7246 81.6426 13.8945 81.6426 14.0898C81.6426 14.2891 81.6875 14.4707 81.7773 14.6348C81.8672 14.7988 82.002 14.9297 82.1816 15.0273C82.3652 15.1211 82.5898 15.168 82.8555 15.168C83.1875 15.168 83.4805 15.0977 83.7344 14.957C83.9883 14.8164 84.1895 14.6445 84.3379 14.4414C84.4902 14.2383 84.5723 14.041 84.584 13.8496L85.0469 14.3711C85.0195 14.5352 84.9453 14.7168 84.8242 14.916C84.7031 15.1152 84.541 15.3066 84.3379 15.4902C84.1387 15.6699 83.9004 15.8203 83.623 15.9414C83.3496 16.0586 83.041 16.1172 82.6973 16.1172C82.2676 16.1172 81.8906 16.0332 81.5664 15.8652C81.2461 15.6973 80.9961 15.4727 80.8164 15.1914C80.6406 14.9062 80.5527 14.5879 80.5527 14.2363C80.5527 13.8965 80.6191 13.5977 80.752 13.3398C80.8848 13.0781 81.0762 12.8613 81.3262 12.6895C81.5762 12.5137 81.877 12.3809 82.2285 12.291C82.5801 12.2012 82.9727 12.1562 83.4062 12.1562H84.666Z" fill="white"/>
</svg>
