<svg width="49" height="49" viewBox="0 0 49 49" fill="none" xmlns="http://www.w3.org/2000/svg">
<path fill-rule="evenodd" clip-rule="evenodd" d="M14.1387 18.5792V33.3813C14.1387 33.7738 14.2946 34.1503 14.5722 34.4279C14.8498 34.7055 15.2263 34.8615 15.6189 34.8615H33.3814C33.7739 34.8615 34.1504 34.7055 34.428 34.4279C34.7056 34.1503 34.8616 33.7738 34.8616 33.3813V18.5792H14.1387ZM15.6189 14.1385C14.8337 14.1385 14.0807 14.4505 13.5255 15.0056C12.9703 15.5608 12.6584 16.3138 12.6584 17.099V33.3813C12.6584 34.1664 12.9703 34.9194 13.5255 35.4746C14.0807 36.0298 14.8337 36.3417 15.6189 36.3417H33.3814C34.1665 36.3417 34.9195 36.0298 35.4747 35.4746C36.0299 34.9194 36.3418 34.1664 36.3418 33.3813V17.099C36.3418 16.3138 36.0299 15.5608 35.4747 15.0056C34.9195 14.4505 34.1665 14.1385 33.3814 14.1385H15.6189Z" fill="#5661CB"/>
<path fill-rule="evenodd" clip-rule="evenodd" d="M17.839 12.6583C18.0353 12.6583 18.2235 12.7363 18.3623 12.8751C18.5011 13.0139 18.5791 13.2021 18.5791 13.3984V14.1385C18.5791 14.3348 18.5011 14.5231 18.3623 14.6619C18.2235 14.8007 18.0353 14.8786 17.839 14.8786C17.6427 14.8786 17.4544 14.8007 17.3156 14.6619C17.1769 14.5231 17.0989 14.3348 17.0989 14.1385V13.3984C17.0989 13.2021 17.1769 13.0139 17.3156 12.8751C17.4544 12.7363 17.6427 12.6583 17.839 12.6583V12.6583ZM31.1609 12.6583C31.3571 12.6583 31.5454 12.7363 31.6842 12.8751C31.823 13.0139 31.901 13.2021 31.901 13.3984V14.1385C31.901 14.3348 31.823 14.5231 31.6842 14.6619C31.5454 14.8007 31.3571 14.8786 31.1609 14.8786C30.9646 14.8786 30.7763 14.8007 30.6375 14.6619C30.4987 14.5231 30.4208 14.3348 30.4208 14.1385V13.3984C30.4208 13.2021 30.4987 13.0139 30.6375 12.8751C30.7763 12.7363 30.9646 12.6583 31.1609 12.6583V12.6583Z" fill="#5661CB"/>
<path d="M27.2573 22.0065V22.6078L23.7707 30.4252H22.6432L26.124 22.8854H21.5677V22.0065H27.2573Z" fill="#5661CB"/>
</svg>
