<svg width="29" height="27" viewBox="0 0 29 27" fill="none" xmlns="http://www.w3.org/2000/svg">
<g clip-path="url(#clip0_13_672)">
<path d="M13.2315 20.4057H0.472554C0.214797 20.4057 0 20.6205 0 20.8783V26.4201C0 26.6778 0.214797 26.8926 0.472554 26.8926H13.2745C13.5322 26.8926 13.747 26.6778 13.747 26.463V20.8783C13.747 20.6205 13.4893 20.4057 13.2315 20.4057ZM12.759 25.9475H0.945107V21.3508H12.8019C12.8019 21.3508 12.8019 25.9475 12.759 25.9475ZM27.7518 20.4057H14.9928C14.7351 20.4057 14.5203 20.6205 14.5203 20.8783V26.4201C14.5203 26.6778 14.7351 26.8926 14.9928 26.8926H27.7947C28.0525 26.8926 28.2673 26.6778 28.2673 26.463V20.8783C28.2673 20.6205 28.0525 20.4057 27.7518 20.4057ZM27.2792 25.9475H15.4654V21.3508H27.3222L27.2792 25.9475ZM7.81862 13.2315C7.56086 13.2315 7.34606 13.4463 7.34606 13.7041V19.2458C7.34606 19.5036 7.56086 19.7184 7.81862 19.7184H20.6205C20.8783 19.7184 21.0931 19.5036 21.0931 19.2458V13.7041C21.0931 13.4463 20.8783 13.2315 20.6205 13.2315H7.81862ZM8.29117 18.7733V14.1766H20.148L20.1909 18.7733H8.29117Z" fill="#5661CB"/>
<path d="M8.76379 10.7399C9.02155 11.0835 9.40818 11.2983 9.83778 11.2983C10.2674 11.2983 10.697 11.0406 10.9118 10.6969L12.2435 8.46301L13.0168 8.93556C13.0597 8.97852 13.1457 8.97852 13.1886 8.97852C13.3175 8.97852 13.4034 8.8926 13.4893 8.80668L13.7041 8.42005H13.7471L19.117 9.27923L18.7304 9.79475C18.6445 9.88067 18.6015 9.96659 18.6015 10.1814C18.6015 10.3103 18.7304 10.3532 18.8163 10.4391L25.0025 14.9499C25.0884 14.9928 25.1743 15.0358 25.3032 15.0358C25.475 15.0358 25.6039 14.9928 25.6898 14.864L27.3652 12.5442C27.4511 12.4582 27.5371 12.2434 27.4941 12.1146C27.4511 11.9857 27.4082 11.9427 27.3223 11.8568L21.1361 7.43198C20.9213 7.3031 20.6206 7.34606 20.4917 7.5179L19.8044 8.46301L14.3056 7.60382L14.3915 7.43198C14.4344 7.34606 14.4774 7.21718 14.4344 7.13126C14.3915 7.04534 14.3485 7.00238 14.2626 6.95942L13.4893 6.44391L14.7352 4.38186C14.9929 4.03818 14.9929 3.60859 14.864 3.22195C14.6922 2.83532 14.3915 2.57756 14.0048 2.44868L4.12417 0.0429565C3.65162 -0.0859218 3.13611 0.0859159 2.87835 0.51551C2.53468 0.945104 2.53468 1.50358 2.87835 1.93317L8.76379 10.7399ZM21.0072 8.46301L26.4201 12.4153L25.3032 13.9189L19.8473 9.96659L21.0072 8.46301ZM13.6182 7.34606L13.1027 8.11933L12.5013 7.73269L10.3963 6.40095C10.1815 6.27207 10.1385 6.01432 10.2674 5.79952L10.3103 5.7136C10.4392 5.4988 10.697 5.45584 10.9118 5.58472L13.6182 7.34606ZM3.60866 1.03102C3.65162 0.988064 3.73754 0.945104 3.7805 0.945104H3.86642L13.7041 3.35083C13.79 3.35083 13.9189 3.43675 13.9619 3.52267C14.0048 3.60859 14.0048 3.73747 13.9189 3.82339L12.6731 5.88544L11.2125 4.94033C10.7399 4.63962 10.0955 4.76849 9.79482 5.24105L9.62298 5.4988C9.4941 5.75656 9.45114 6.05728 9.4941 6.27207C9.58002 6.52983 9.66594 6.74463 9.96666 6.91647L11.5562 7.90453L10.1815 10.1384C10.1385 10.2243 10.0096 10.3103 9.88074 10.3103C9.75186 10.3103 9.66594 10.2673 9.58002 10.1814L3.60866 1.3747C3.52274 1.28878 3.52274 1.1599 3.60866 1.03102ZM10.3963 14.821L9.36522 15.852C9.23635 15.9809 9.23635 16.1957 9.36522 16.3246C9.40818 16.3675 9.4941 16.4105 9.58002 16.4105C9.66594 16.4105 9.75186 16.4105 9.83778 16.3246L10.8688 15.2936C10.9977 15.1647 10.9977 14.9499 10.8688 14.821C10.7399 14.6921 10.5251 14.6921 10.3963 14.821ZM10.3963 16.3675L9.36522 17.3986C9.23635 17.5274 9.23635 17.7422 9.36522 17.8711C9.40818 17.9141 9.4941 17.957 9.58002 17.957C9.66594 17.957 9.75186 17.9141 9.83778 17.8711L10.8688 16.8401C10.9977 16.7112 10.9977 16.4964 10.8688 16.3675C10.7399 16.2387 10.5251 16.2387 10.3963 16.3675ZM2.31988 23.6706C2.4058 23.6706 2.49172 23.6706 2.53468 23.6277L3.5657 22.5967C3.69458 22.4678 3.69458 22.253 3.5657 22.1241C3.43682 21.9952 3.22203 21.9952 3.09315 22.1241L2.10508 23.1122C1.9762 23.241 1.9762 23.4558 2.10508 23.5847C2.14804 23.6277 2.23396 23.6706 2.31988 23.6706ZM2.31988 25.2172C2.4058 25.2172 2.49172 25.1742 2.53468 25.1313L3.5657 24.1002C3.69458 23.9714 3.69458 23.7566 3.5657 23.6277C3.43682 23.4988 3.22203 23.4988 3.09315 23.6277L2.10508 24.6587C1.9762 24.7876 1.9762 25.0024 2.10508 25.1313C2.14804 25.1742 2.23396 25.2172 2.31988 25.2172ZM16.9261 23.6706C17.012 23.6706 17.0979 23.6706 17.1838 23.5847L18.2149 22.5537C18.3437 22.4248 18.3437 22.21 18.2149 22.0811C18.086 21.9523 17.8712 21.9523 17.7423 22.0811L16.7113 23.1122C16.5824 23.241 16.5824 23.4558 16.7113 23.5847C16.7542 23.6277 16.8402 23.6706 16.9261 23.6706ZM16.9261 25.2172C17.012 25.2172 17.0979 25.1742 17.1838 25.1313L18.2149 24.1002C18.3437 23.9714 18.3437 23.7566 18.2149 23.6277C18.086 23.4988 17.8712 23.4988 17.7423 23.6277L16.7113 24.6587C16.5824 24.7876 16.5824 25.0024 16.7113 25.1313C16.7542 25.1742 16.8402 25.2172 16.9261 25.2172Z" fill="#5661CB"/>
</g>
<defs>
<clipPath id="clip0_13_672">
<rect width="28.2673" height="26.8926" fill="white"/>
</clipPath>
</defs>
</svg>
