<svg xmlns="http://www.w3.org/2000/svg">
<defs><style>g { display: none; }g:target { display: inline; }</style></defs>
<svg viewBox="0 0 27 27">
  <g fill="none" id="cart">
    <path d="M9.542 27c1.116 0 2.02-.924 2.02-2.065 0-1.14-.904-2.064-2.02-2.064-1.115 0-2.02.924-2.02 2.064 0 1.14.905 2.065 2.02 2.065zm12.273 0c1.115 0 2.02-.924 2.02-2.065 0-1.14-.905-2.064-2.02-2.064-1.116 0-2.02.924-2.02 2.064 0 1.14.904 2.065 2.02 2.065zM27 4.176c-.078-.17-.118-.851-.12-1.022.002-.171.042-.342.12-.511H8l1 1.533h18z" fill="#5661CB"></path>
    <path d="M24.508 10.024h-.377l-1.122 5.047H9.542L5.44 1.793a.921.921 0 00-.225-.372.894.894 0 00-.368-.224L1.167.04a.883.883 0 00-.688.066.917.917 0 00-.44.544.94.94 0 00.066.702.906.906 0 00.532.45L3.86 2.811l4.12 13.305-1.472 1.23-.117.119a2.47 2.47 0 00-.583 1.542 2.476 2.476 0 00.511 1.569c.245.304.556.545.908.705.353.159.737.232 1.121.212h14.984a.888.888 0 00.634-.268.928.928 0 000-1.298.888.888 0 00-.634-.269H8.205a.592.592 0 01-.505-.314.626.626 0 01.002-.604l2.164-1.835h13.86a.885.885 0 00.575-.194.92.92 0 00.324-.521l1.409-6.341c-.5.117-1.013.176-1.526.174z" fill="#5661CB"></path>
  </g>
  </svg>
  <svg viewBox="0 0 27 27">
  <g fill="none" id="cart-full">
    <path d="M8.885 27c1.04 0 1.881-.878 1.881-1.96 0-1.082-.842-1.96-1.88-1.96-1.04 0-1.881.878-1.881 1.96 0 1.082.842 1.96 1.88 1.96zm11.428 0c1.038 0 1.88-.878 1.88-1.96 0-1.082-.842-1.96-1.88-1.96-1.04 0-1.881.878-1.881 1.96 0 1.082.842 1.96 1.88 1.96zM16.61 5.226a6.817 6.817 0 01-.06-.871c.002-.292.021-.582.06-.871H7.346l.544 1.742h8.718z" fill="#5661CB"></path>
    <path d="M22.82 10.887h-.35l-1.046 4.79H8.885L5.065 3.076a.878.878 0 00-.209-.354.83.83 0 00-.343-.212l-3.427-1.1a.807.807 0 00-.64.063.867.867 0 00-.409.516.908.908 0 00.06.667.848.848 0 00.496.426l3 .958 3.838 12.63-1.371 1.167-.109.113a2.372 2.372 0 00-.543 1.464 2.38 2.38 0 00.476 1.488c.228.29.518.518.846.67.328.15.685.22 1.044.201h13.951a.82.82 0 00.591-.255.89.89 0 00.245-.616.89.89 0 00-.245-.615.82.82 0 00-.59-.256H7.64a.544.544 0 01-.272-.084.575.575 0 01-.198-.214.603.603 0 01.002-.573l2.014-1.742h12.907a.813.813 0 00.535-.183.876.876 0 00.301-.496l1.312-6.018a6.036 6.036 0 01-1.42.165zm0-2.177c2.31 0 4.18-1.95 4.18-4.355C27 1.95 25.129 0 22.82 0c-2.308 0-4.18 1.95-4.18 4.355 0 2.405 1.872 4.355 4.18 4.355z" fill="#5661CB"></path>
  </g>
  </svg>
  <svg viewBox="0 0 27 27">
  <g fill="none" id="star">
    <path fill-rule="evenodd" clip-rule="evenodd" d="M4.836 25.06c-.131.749.608 1.334 1.26 1l7.407-3.807 7.407 3.807c.651.334 1.39-.251 1.259-.999l-1.4-7.982 5.944-5.663c.555-.53.267-1.499-.477-1.603L17.97 8.638l-3.685-7.302a.865.865 0 00-1.565 0L9.035 8.64.77 9.814c-.745.105-1.033 1.074-.478 1.604l5.945 5.663-1.4 7.982v-.004zm8.278-4.67l-6.22 3.196 1.17-6.677a.954.954 0 00-.274-.852l-4.904-4.675 6.837-.972a.887.887 0 00.664-.486l3.116-6.173 3.116 6.173a.887.887 0 00.663.486l6.837.97-4.903 4.675a.95.95 0 00-.276.854l1.172 6.677-6.22-3.196a.848.848 0 00-.778 0z" fill="#5661CB"></path>
  </g>
  </svg>
  <svg viewBox="0 0 27 27">
  <g fill="none" id="star-full">
    <path d="M6.095 26.06c-.651.334-1.39-.252-1.259-1l1.401-7.98-5.945-5.664c-.555-.53-.267-1.499.478-1.603l8.265-1.175 3.685-7.302a.866.866 0 011.565 0l3.685 7.302 8.266 1.175c.744.104 1.032 1.073.477 1.603l-5.945 5.663 1.4 7.982c.132.747-.607 1.333-1.258.999l-7.41-3.807-7.406 3.807h.001z" fill="#5661CB"></path>
  </g>
</svg>
<svg viewBox="0 0 29 29">
<g fill="none" id="catalog">
<path d="M4.8335 21.75H24.1668M4.8335 7.25H24.1668H4.8335ZM4.8335 14.5H14.5002H4.8335Z" stroke="white" stroke-width="2" stroke-linecap="round" stroke-linejoin="round"/>
</g>
</svg>
<svg viewBox="0 0 16 18">
<g fill="none" id="search">
<path d="M5.88321 0C7.44354 0 8.93995 0.684819 10.0433 1.90381C11.1466 3.12279 11.7664 4.77609 11.7664 6.5C11.7664 8.11 11.2324 9.59 10.3545 10.73L10.5988 11H11.3139L15.8394 16L14.4818 17.5L9.9562 12.5V11.71L9.71182 11.44C8.64429 12.4468 7.28677 12.9999 5.88321 13C4.32289 13 2.82647 12.3152 1.72315 11.0962C0.619836 9.87721 0 8.22391 0 6.5C0 4.77609 0.619836 3.12279 1.72315 1.90381C2.82647 0.684819 4.32289 0 5.88321 0ZM5.88321 2C3.62044 2 1.81022 4 1.81022 6.5C1.81022 9 3.62044 11 5.88321 11C8.14599 11 9.9562 9 9.9562 6.5C9.9562 4 8.14599 2 5.88321 2Z" fill="#5661CB"/>
</g>
</svg>
<svg viewBox="0 0 6 12">
<g fill="none" id="groups">
<path fill-rule="evenodd" clip-rule="evenodd" d="M0.125877 0.125877C0.165677 0.0859757 0.212958 0.0543185 0.265012 0.0327185C0.317066 0.0111185 0.37287 0 0.429228 0C0.485585 0 0.541389 0.0111185 0.593443 0.0327185C0.645497 0.0543185 0.692779 0.0859757 0.732579 0.125877L5.87412 5.26742C5.91402 5.30722 5.94568 5.3545 5.96728 5.40656C5.98888 5.45861 6 5.51441 6 5.57077C6 5.62713 5.98888 5.68293 5.96728 5.73499C5.94568 5.78704 5.91402 5.83432 5.87412 5.87412L0.732579 11.0157C0.652125 11.0961 0.543006 11.1413 0.429228 11.1413C0.315449 11.1413 0.20633 11.0961 0.125877 11.0157C0.0454229 10.9352 0.000224329 10.8261 0.000224329 10.7123C0.000224329 10.5985 0.0454229 10.4894 0.125877 10.409L4.96493 5.57077L0.125877 0.732579C0.0859754 0.692779 0.0543181 0.645498 0.0327181 0.593444C0.0111181 0.54139 0 0.485586 0 0.429228C0 0.37287 0.0111181 0.317067 0.0327181 0.265013C0.0543181 0.212959 0.0859754 0.165677 0.125877 0.125877Z" fill="#272727"/>
</g>
</svg>
<svg viewBox="0 0 120 120">
<g fill="none" id="ambulance">
<path d="M70 45C70 43.8954 70.8954 43 72 43H80.385C81.6685 43 82.874 43.6159 83.6262 44.6559L94 59H70V45Z" stroke="#5661CB" stroke-width="4" stroke-linecap="round" stroke-linejoin="round"/>
<path d="M70 59V57C68.8954 57 68 57.8954 68 59H70ZM94 59H96C96 57.8954 95.1046 57 94 57V59ZM70 75H68C68 76.1046 68.8954 77 70 77V75ZM74.8847 75V77C75.7808 77 76.5675 76.4039 76.81 75.5412L74.8847 75ZM75.1716 74.1716L73.3238 73.4062L73.3238 73.4062L75.1716 74.1716ZM79.1716 70.1716L78.4062 68.3238H78.4062L79.1716 70.1716ZM84.8284 70.1716L85.5938 68.3238H85.5938L84.8284 70.1716ZM88.8284 74.1716L90.6762 73.4062V73.4062L88.8284 74.1716ZM89.1153 75L87.19 75.5412C87.4325 76.4039 88.2192 77 89.1153 77V75ZM94 75V77C95.1046 77 96 76.1046 96 75H94ZM70 61H94V57H70V61ZM72 75V59H68V75H72ZM74.8847 73H70V77H74.8847V73ZM76.81 75.5412C76.8675 75.3369 76.9372 75.1351 77.0193 74.9369L73.3238 73.4062C73.1809 73.7512 73.0594 74.1027 72.9593 74.4588L76.81 75.5412ZM77.0193 74.9369C77.5665 73.616 78.616 72.5665 79.9369 72.0193L78.4062 68.3238C76.1051 69.2769 74.2769 71.1051 73.3238 73.4062L77.0193 74.9369ZM79.9369 72.0193C81.2579 71.4722 82.7421 71.4722 84.0631 72.0193L85.5938 68.3238C83.2927 67.3707 80.7073 67.3707 78.4062 68.3238L79.9369 72.0193ZM84.0631 72.0193C85.384 72.5665 86.4335 73.616 86.9807 74.9369L90.6762 73.4062C89.7231 71.1051 87.8949 69.2769 85.5938 68.3238L84.0631 72.0193ZM86.9807 74.9369C87.0628 75.1351 87.1325 75.3369 87.19 75.5412L91.0407 74.4588C90.9406 74.1027 90.8191 73.7512 90.6762 73.4062L86.9807 74.9369ZM94 73H89.1153V77H94V73ZM92 59V75H96V59H92Z" fill="#5661CB"/>
<path d="M79.1716 70.1716C80.9826 69.4214 83.0174 69.4214 84.8284 70.1716V70.1716C86.6394 70.9217 88.0783 72.3606 88.8284 74.1716V74.1716C89.5786 75.9826 89.5786 78.0174 88.8284 79.8284V79.8284C88.0783 81.6394 86.6394 83.0783 84.8284 83.8284V83.8284C83.0174 84.5786 80.9826 84.5786 79.1716 83.8284V83.8284C77.3606 83.0783 75.9217 81.6394 75.1716 79.8284V79.8284C74.4214 78.0174 74.4214 75.9826 75.1716 74.1716V74.1716C75.9217 72.3606 77.3606 70.9217 79.1716 70.1716V70.1716Z" stroke="#5661CB" stroke-width="4" stroke-linecap="round" stroke-linejoin="round"/>
<path d="M26 75H24C24 76.1046 24.8954 77 26 77V75ZM31.8847 75V77C32.7808 77 33.5675 76.4039 33.81 75.5412L31.8847 75ZM32.1716 74.1716L34.0193 74.9369L34.0193 74.9369L32.1716 74.1716ZM36.1716 70.1716L35.4062 68.3238L36.1716 70.1716ZM41.8284 70.1716L42.5938 68.3238L41.8284 70.1716ZM45.8284 74.1716L43.9807 74.9369L45.8284 74.1716ZM46.1153 75L44.19 75.5412C44.4325 76.4039 45.2192 77 46.1153 77V75ZM70 75V77C71.1046 77 72 76.1046 72 75H70ZM28 39C28 37.8954 28.8954 37 30 37V33C26.6863 33 24 35.6863 24 39H28ZM28 75V39H24V75H28ZM31.8847 73H26V77H31.8847V73ZM33.81 75.5412C33.8675 75.3369 33.9372 75.1351 34.0193 74.9369L30.3238 73.4062C30.1809 73.7512 30.0594 74.1027 29.9593 74.4588L33.81 75.5412ZM34.0193 74.9369C34.5665 73.616 35.616 72.5665 36.9369 72.0193L35.4062 68.3238C33.1051 69.2769 31.2769 71.1051 30.3238 73.4062L34.0193 74.9369ZM36.9369 72.0193C38.2579 71.4722 39.7421 71.4722 41.0631 72.0193L42.5938 68.3238C40.2927 67.3707 37.7073 67.3707 35.4062 68.3238L36.9369 72.0193ZM41.0631 72.0193C42.384 72.5665 43.4335 73.616 43.9807 74.9369L47.6762 73.4062C46.7231 71.1051 44.8949 69.2769 42.5938 68.3238L41.0631 72.0193ZM43.9807 74.9369C44.0628 75.1351 44.1325 75.3369 44.19 75.5412L48.0407 74.4588C47.9406 74.1027 47.8191 73.7512 47.6762 73.4062L43.9807 74.9369ZM70 73H46.1153V77H70V73ZM68 39V75H72V39H68ZM66 37C67.1046 37 68 37.8954 68 39H72C72 35.6863 69.3137 33 66 33V37ZM30 37H66V33H30V37Z" fill="#5661CB"/>
<path d="M36.1716 70.1716C37.9826 69.4214 40.0174 69.4214 41.8284 70.1716V70.1716C43.6394 70.9217 45.0783 72.3606 45.8284 74.1716V74.1716C46.5786 75.9826 46.5786 78.0174 45.8284 79.8284V79.8284C45.0783 81.6394 43.6394 83.0783 41.8284 83.8284V83.8284C40.0174 84.5786 37.9826 84.5786 36.1716 83.8284V83.8284C34.3606 83.0783 32.9217 81.6394 32.1716 79.8284V79.8284C31.4214 78.0174 31.4214 75.9826 32.1716 74.1716V74.1716C32.9217 72.3606 34.3606 70.9217 36.1716 70.1716V70.1716Z" stroke="#5661CB" stroke-width="4" stroke-linecap="round" stroke-linejoin="round"/>
</g>
</svg>
<svg viewBox="0 0 120 120">
<g fill="none" id="percent">
<path d="M74.1127 37.4336L45.6855 82.5691" stroke="#5661CB" stroke-width="4" stroke-linecap="round" stroke-linejoin="round"/>
<path d="M45.0253 50.5524C42.2499 48.1042 42.2499 44.135 45.0253 41.6869V41.6869C47.8006 39.2388 52.3004 39.2388 55.0758 41.6869V41.6869C57.8511 44.135 57.8511 48.1042 55.0758 50.5524V50.5524C52.3004 53.0005 47.8006 53.0005 45.0253 50.5524V50.5524Z" stroke="#5661CB" stroke-width="4" stroke-linecap="round" stroke-linejoin="round"/>
<path d="M64.9242 78.3136C62.1488 75.8655 62.1488 71.8963 64.9242 69.4481V69.4481C67.6996 67 72.1993 67 74.9747 69.4481V69.4481C77.7501 71.8963 77.7501 75.8655 74.9747 78.3136V78.3136C72.1993 80.7617 67.6996 80.7617 64.9242 78.3136V78.3136Z" stroke="#5661CB" stroke-width="4" stroke-linecap="round" stroke-linejoin="round"/>
</g>
</svg>
<svg viewBox="0 0 120 120">
<g fill="none" id="rouble">
<path d="M43.9118 35V69.3824H39V74.2941H43.9118V84.1176H48.8235V74.2941H63.5588V69.3824H48.8235V62.0147H67.2426C74.6741 62.0147 80.75 55.9389 80.75 48.5074C80.75 41.0759 74.6741 35 67.2426 35H43.9118ZM48.8235 39.9118H67.2426C72.0169 39.9118 75.8382 43.7331 75.8382 48.5074C75.8382 53.2816 72.0169 57.1029 67.2426 57.1029H48.8235V39.9118Z" fill="#5661CB"/>
</g>
</svg>
<svg viewBox="0 0 120 120">
<g fill="none" id="calendar">
<path fill-rule="evenodd" clip-rule="evenodd" d="M34.625 45.5V81.75C34.625 82.7114 35.0069 83.6334 35.6867 84.3133C36.3666 84.9931 37.2886 85.375 38.25 85.375H81.75C82.7114 85.375 83.6334 84.9931 84.3133 84.3133C84.9931 83.6334 85.375 82.7114 85.375 81.75V45.5H34.625ZM38.25 34.625C36.3272 34.625 34.4831 35.3888 33.1235 36.7485C31.7638 38.1081 31 39.9522 31 41.875V81.75C31 83.6728 31.7638 85.5169 33.1235 86.8765C34.4831 88.2362 36.3272 89 38.25 89H81.75C83.6728 89 85.5169 88.2362 86.8765 86.8765C88.2362 85.5169 89 83.6728 89 81.75V41.875C89 39.9522 88.2362 38.1081 86.8765 36.7485C85.5169 35.3888 83.6728 34.625 81.75 34.625H38.25Z" fill="#5661CB"/>
<path fill-rule="evenodd" clip-rule="evenodd" d="M43.6875 31C44.1682 31 44.6292 31.191 44.9691 31.5309C45.309 31.8708 45.5 32.3318 45.5 32.8125V34.625C45.5 35.1057 45.309 35.5667 44.9691 35.9066C44.6292 36.2465 44.1682 36.4375 43.6875 36.4375C43.2068 36.4375 42.7458 36.2465 42.4059 35.9066C42.066 35.5667 41.875 35.1057 41.875 34.625V32.8125C41.875 32.3318 42.066 31.8708 42.4059 31.5309C42.7458 31.191 43.2068 31 43.6875 31V31ZM76.3125 31C76.7932 31 77.2542 31.191 77.5941 31.5309C77.934 31.8708 78.125 32.3318 78.125 32.8125V34.625C78.125 35.1057 77.934 35.5667 77.5941 35.9066C77.2542 36.2465 76.7932 36.4375 76.3125 36.4375C75.8318 36.4375 75.3708 36.2465 75.0309 35.9066C74.691 35.5667 74.5 35.1057 74.5 34.625V32.8125C74.5 32.3318 74.691 31.8708 75.0309 31.5309C75.3708 31.191 75.8318 31 76.3125 31V31Z" fill="#5661CB"/>
<path d="M66.738 55.4272L58.1995 74.5718H55.4524L63.9626 56.1069H52.8044V53.9546H66.738V55.4272Z" fill="#5661CB"/>
</g>
</svg>
<svg viewBox="0 0 16 18">
<g fill="none" id="v1">
<path d="M0.243873 17.5589V0.975586M0 1.21946H15.6078" stroke="white" stroke-width="0.487745"/>
</g>
</svg>
<svg viewBox="0 0 17 16">
<g fill="none" id="v2">
<path d="M0.416504 0.731618H16.9998M16.2682 0V15.6078" stroke="white" stroke-width="0.487745"/>
</g>
</svg>
<svg viewBox="0 0 17 17">
<g fill="none" id="v3">
<path d="M16.5833 15.7761H0M0.243873 16.02V0.412109" stroke="white" stroke-width="0.487745"/>
</g>
</svg>
<svg viewBox="0 0 17 18">
<g fill="none" id="v4">
<path d="M16.2927 0.412109V16.9954M16.5366 16.9954H0.928711" stroke="white" stroke-width="0.487745"/>
</g>
</svg>
<svg viewBox="0 0 36 28">
<g fill="#5661CB" id="s1">
<path d="M27.1503 12.8877C26.8066 12.9307 26.5488 13.1884 26.5488 13.4891C26.5488 13.7898 26.8066 14.0476 27.1503 14.0476C27.1503 14.0476 28.1383 14.0906 29.8567 15.8089L30.5011 16.4533H27.2362C26.8925 16.4533 26.6347 16.7111 26.6347 17.0548C26.6347 17.3984 26.8925 17.6562 27.2362 17.6562H33.2075L32.3484 16.6681C32.3054 16.6252 32.1336 16.4104 30.6729 14.9927C28.6109 12.9307 27.2791 12.8877 27.1503 12.8877Z"/>
<path d="M36 16.7971L32.3484 13.1456C30.2434 10.7399 27.537 10.3532 25.4749 10.2673V0H0V23.284H2.53461C2.49165 23.5418 2.49165 23.7566 2.49165 24.0143C2.49165 25.9475 4.08115 27.494 5.97136 27.494C7.90453 27.494 9.45107 25.9045 9.45107 24.0143C9.45107 23.7566 9.40811 23.5418 9.40811 23.284H22.0811C22.0382 23.5418 22.0382 23.7566 22.0382 24.0143C22.0382 25.9475 23.6277 27.494 25.5179 27.494C27.4081 27.494 28.9976 25.9045 28.9976 24.0143C28.9976 23.7566 28.9547 23.4988 28.9117 23.284H35.957V16.7971H36ZM5.97136 26.2912C4.68258 26.2912 3.65155 25.2601 3.65155 23.9714C3.65155 23.7136 3.69451 23.4988 3.78043 23.2411C3.90931 22.7685 4.25298 22.3389 4.68258 22.0382C5.06921 21.7804 5.49881 21.6086 5.97136 21.6086C6.44391 21.6086 6.91647 21.7375 7.26014 22.0382C7.68974 22.3389 7.99045 22.7685 8.16229 23.2411C8.20525 23.4988 8.29117 23.7136 8.29117 23.9714C8.29117 25.2601 7.26014 26.2912 5.97136 26.2912ZM22.5537 22.0811H8.93556C8.33413 21.136 7.21718 20.4916 6.01432 20.4916C4.81146 20.4916 3.69451 21.136 3.09308 22.0811H1.20286V1.20286H24.315V20.7064C23.5847 20.9642 22.9833 21.4368 22.5537 22.0811ZM25.5179 26.2912C24.2291 26.2912 23.1981 25.2601 23.1981 23.9714C23.1981 23.7136 23.241 23.4988 23.327 23.2411C23.4558 22.7685 23.7995 22.3389 24.2291 22.0382C24.6158 21.7804 25.0453 21.6086 25.5179 21.6086C25.9905 21.6086 26.42 21.7375 26.8067 21.9952C27.2363 22.253 27.537 22.7255 27.7088 23.1981C27.7947 23.4558 27.8377 23.6706 27.8377 23.9284C27.7947 25.2601 26.7637 26.2912 25.5179 26.2912ZM34.7542 22.0811H28.3962C27.7947 21.136 26.7208 20.4916 25.4749 20.4916H25.432V11.4702C28.1384 11.5561 29.9857 12.3294 31.4033 13.9618L34.7112 17.3126V22.0811H34.7542Z"/>
</g>
</svg>
<svg viewBox="0 0 29 31">
<g fill="#5661CB" id="s2">
<path d="M28.5682 29.7279C28.4393 29.3842 27.5371 27.2363 26.4632 25.6897C26.0765 25.1313 25.6899 24.6587 25.2603 24.401C24.6589 23.9714 23.6708 23.6706 22.9405 23.4558C22.7687 23.4129 22.6398 23.3699 22.4679 23.327L22.2531 23.1981C21.6517 23.0263 21.6517 23.0263 20.7496 22.7255L20.5348 22.6826C19.3319 22.2959 18.2579 21.9523 17.6994 21.8234V19.3747C18.3438 18.6874 20.7496 15.895 21.308 12.0286C21.351 11.8568 21.351 11.642 21.3939 11.4702C22.0813 11.1265 22.5109 10.6969 22.7257 10.1814C23.1982 9.1074 22.5109 8.11933 22.2102 7.7327C22.1243 6.40095 21.7806 4.03819 20.1481 2.27685C18.7734 0.77327 16.7973 0 14.2627 0C12.1577 0 10.4393 0.644391 9.15051 1.97613C7.34622 3.82339 6.87366 6.44391 6.78774 7.77566C6.44407 8.16229 5.75672 9.1074 6.18631 10.1384C6.40111 10.6539 6.8307 11.0835 7.51805 11.4272C7.51805 11.599 7.56101 11.8138 7.56101 12.0286C7.56101 12.1146 7.56101 12.2005 7.60397 12.2864C8.11949 16.7112 10.1386 18.8162 10.8689 19.3747V21.7804C9.06459 22.2959 3.65171 23.9284 2.66364 24.8735C2.66364 24.8735 2.66364 24.9165 2.62068 24.9165C1.07414 26.463 0.0860726 29.8998 0.0431132 30.0286C-0.0428056 30.3294 0.129032 30.6301 0.429748 30.673C0.472707 30.716 0.515667 30.716 0.601586 30.716C0.859342 30.716 1.07414 30.5442 1.1171 30.3294C1.16006 30.2864 2.10517 26.9785 3.43691 25.5609C3.69466 25.3031 4.63977 24.8735 5.84264 24.4439V30.4582C5.84264 30.673 6.01447 30.8449 6.22927 30.8449C6.44407 30.8449 6.61591 30.673 6.61591 30.4582V24.1862C6.95958 24.0573 7.34622 23.9284 7.68989 23.7995V30.4582C7.68989 30.673 7.86173 30.8449 8.07653 30.8449C8.33428 30.8449 8.46316 30.673 8.46316 30.4582V23.5847C9.53715 23.2411 10.6541 22.8974 11.5562 22.6826C11.814 22.6396 11.9429 22.4248 11.9429 22.1671V19.1169C11.9429 18.9451 11.857 18.8162 11.6851 18.6874C11.6422 18.6874 9.23643 16.926 8.635 12.1575C8.635 12.0716 8.635 11.9857 8.59204 11.8998C10.0527 12.2864 12.0288 12.4582 14.6064 12.4582C17.0121 12.4582 18.9023 12.2864 20.234 11.8998C19.5897 15.852 16.7973 18.7303 16.7543 18.7733C16.6684 18.8592 16.5825 19.031 16.5825 19.1599V22.253C16.5825 22.5107 16.7543 22.6826 16.9691 22.7685C16.9691 22.7685 18.4727 23.2411 20.1481 23.7566V30.5012C20.1481 30.716 20.32 30.8878 20.5348 30.8878C20.7925 30.8878 20.9214 30.716 20.9214 30.5012V23.9284C21.308 24.0573 21.4369 24.1002 21.8665 24.2291L22.0383 24.2721V30.4582C22.0383 30.673 22.2102 30.8449 22.425 30.8449C22.6398 30.8449 22.8116 30.673 22.8116 30.4582V24.5298C23.456 24.7446 24.1863 25.0024 24.6159 25.2601C25.6469 25.9475 27.1076 28.9976 27.5371 30.1146C27.6231 30.2864 27.7949 30.4153 28.0097 30.4153C28.0527 30.4153 28.1386 30.4153 28.2245 30.3723C28.5682 30.3294 28.6971 29.9857 28.5682 29.7279ZM7.13142 9.75179C6.87366 9.15036 7.64693 8.33413 7.64693 8.33413C7.77581 8.20525 7.81877 8.03341 7.81877 7.81862C7.94765 6.61575 8.37724 4.25298 9.92378 2.66348C10.5252 2.06205 11.2126 1.63246 12.0718 1.33174V3.43675C12.0718 3.65155 12.2436 3.82339 12.4584 3.82339C12.7161 3.82339 12.845 3.65155 12.845 3.43675V1.20286C13.1887 1.1599 13.5324 1.11695 13.919 1.07399V4.03819C13.919 4.25298 14.0908 4.42482 14.3056 4.42482C14.5634 4.42482 14.6923 4.25298 14.6923 4.03819V1.07399C15.036 1.07399 15.3796 1.11695 15.6803 1.1599V3.43675C15.6803 3.65155 15.8522 3.82339 16.067 3.82339C16.2818 3.82339 16.4536 3.65155 16.4536 3.43675V1.33174C17.6135 1.63246 18.5586 2.19093 19.2889 2.9642C20.7496 4.5537 21.0073 6.78759 21.0503 7.94749H21.0932C21.0932 8.07637 21.1362 8.20525 21.2221 8.33413C21.2651 8.33413 21.9524 9.1074 21.6947 9.75179C21.4799 10.2673 20.3629 11.3842 14.5634 11.3842C8.46316 11.4272 7.34622 10.2673 7.13142 9.75179Z"/>
<path d="M19.8472 8.63483C19.8042 8.42004 19.5894 8.2482 19.3746 8.33412C16.1956 8.97851 12.9307 8.97851 9.75173 8.37708L9.49397 8.33412C9.23621 8.29116 9.06437 8.42004 9.02141 8.63483C8.97846 8.89259 9.10733 9.06443 9.32213 9.10739L9.57989 9.15035C11.1694 9.45106 12.8018 9.6229 14.4343 9.6229C16.1527 9.6229 17.8281 9.45106 19.5465 9.10739C19.7613 9.02147 19.8902 8.80667 19.8472 8.63483Z"/>
</g>
</svg>
<svg viewBox="0 0 29 27">
<g fill="#5661CB" id="s3">
<path d="M13.2315 20.4057H0.472554C0.214797 20.4057 0 20.6205 0 20.8782V26.42C0 26.6777 0.214797 26.8925 0.472554 26.8925H13.2745C13.5322 26.8925 13.747 26.6777 13.747 26.4629V20.8782C13.747 20.6205 13.4893 20.4057 13.2315 20.4057ZM12.759 25.9474H0.945107V21.3508H12.8019C12.8019 21.3508 12.8019 25.9474 12.759 25.9474ZM27.7518 20.4057H14.9928C14.7351 20.4057 14.5203 20.6205 14.5203 20.8782V26.42C14.5203 26.6777 14.7351 26.8925 14.9928 26.8925H27.7947C28.0525 26.8925 28.2673 26.6777 28.2673 26.4629V20.8782C28.2673 20.6205 28.0525 20.4057 27.7518 20.4057ZM27.2792 25.9474H15.4654V21.3508H27.3222L27.2792 25.9474ZM7.81862 13.2314C7.56086 13.2314 7.34606 13.4462 7.34606 13.704V19.2458C7.34606 19.5035 7.56086 19.7183 7.81862 19.7183H20.6205C20.8783 19.7183 21.0931 19.5035 21.0931 19.2458V13.704C21.0931 13.4462 20.8783 13.2314 20.6205 13.2314H7.81862ZM8.29117 18.7732V14.1766H20.148L20.1909 18.7732H8.29117Z"/>
<path d="M8.76367 10.7397C9.02143 11.0834 9.40806 11.2982 9.83766 11.2982C10.2673 11.2982 10.6968 11.0404 10.9116 10.6968L12.2434 8.46288L13.0167 8.93544C13.0596 8.9784 13.1455 8.9784 13.1885 8.9784C13.3174 8.9784 13.4033 8.89248 13.4892 8.80656L13.704 8.41992H13.747L19.1169 9.27911L18.7303 9.79462C18.6443 9.88054 18.6014 9.96646 18.6014 10.1813C18.6014 10.3101 18.7303 10.3531 18.8162 10.439L25.0023 14.9498C25.0883 14.9927 25.1742 15.0357 25.3031 15.0357C25.4749 15.0357 25.6038 14.9927 25.6897 14.8638L27.3651 12.544C27.451 12.4581 27.5369 12.2433 27.494 12.1144C27.451 11.9856 27.4081 11.9426 27.3221 11.8567L21.136 7.43186C20.9212 7.30298 20.6205 7.34594 20.4916 7.51778L19.8042 8.46288L14.3054 7.60369L14.3914 7.43186C14.4343 7.34594 14.4773 7.21706 14.4343 7.13114C14.3914 7.04522 14.3484 7.00226 14.2625 6.9593L13.4892 6.44379L14.735 4.38174C14.9928 4.03806 14.9928 3.60847 14.8639 3.22183C14.6921 2.8352 14.3914 2.57744 14.0047 2.44856L4.12405 0.0428344C3.6515 -0.0860438 3.13599 0.0857939 2.87823 0.515388C2.53455 0.944982 2.53455 1.50346 2.87823 1.93305L8.76367 10.7397ZM21.0071 8.46288L26.42 12.4151L25.3031 13.9187L19.8472 9.96646L21.0071 8.46288ZM13.6181 7.34594L13.1026 8.11921L12.5011 7.73257L10.3961 6.40083C10.1813 6.27195 10.1384 6.01419 10.2673 5.7994L10.3102 5.71348C10.4391 5.49868 10.6968 5.45572 10.9116 5.5846L13.6181 7.34594ZM3.60854 1.0309C3.6515 0.987942 3.73742 0.944982 3.78038 0.944982H3.8663L13.704 3.35071C13.7899 3.35071 13.9188 3.43663 13.9618 3.52255C14.0047 3.60847 14.0047 3.73734 13.9188 3.82326L12.673 5.88532L11.2124 4.94021C10.7398 4.63949 10.0954 4.76837 9.7947 5.24092L9.62286 5.49868C9.49398 5.75644 9.45102 6.05715 9.49398 6.27195C9.5799 6.52971 9.66582 6.74451 9.96654 6.91634L11.556 7.90441L10.1813 10.1383C10.1384 10.2242 10.0095 10.3101 9.88062 10.3101C9.75174 10.3101 9.66582 10.2672 9.5799 10.1813L3.60854 1.37458C3.52262 1.28866 3.52262 1.15978 3.60854 1.0309ZM10.3961 14.8209L9.3651 15.8519C9.23622 15.9808 9.23622 16.1956 9.3651 16.3245C9.40806 16.3674 9.49398 16.4104 9.5799 16.4104C9.66582 16.4104 9.75174 16.4104 9.83766 16.3245L10.8687 15.2934C10.9976 15.1646 10.9976 14.9498 10.8687 14.8209C10.7398 14.692 10.525 14.692 10.3961 14.8209ZM10.3961 16.3674L9.3651 17.3984C9.23622 17.5273 9.23622 17.7421 9.3651 17.871C9.40806 17.914 9.49398 17.9569 9.5799 17.9569C9.66582 17.9569 9.75174 17.914 9.83766 17.871L10.8687 16.84C10.9976 16.7111 10.9976 16.4963 10.8687 16.3674C10.7398 16.2385 10.525 16.2385 10.3961 16.3674ZM2.31976 23.6705C2.40568 23.6705 2.49159 23.6705 2.53455 23.6276L3.56558 22.5965C3.69446 22.4677 3.69446 22.2529 3.56558 22.124C3.4367 21.9951 3.2219 21.9951 3.09303 22.124L2.10496 23.112C1.97608 23.2409 1.97608 23.4557 2.10496 23.5846C2.14792 23.6276 2.23384 23.6705 2.31976 23.6705ZM2.31976 25.2171C2.40568 25.2171 2.49159 25.1741 2.53455 25.1311L3.56558 24.1001C3.69446 23.9712 3.69446 23.7564 3.56558 23.6276C3.4367 23.4987 3.2219 23.4987 3.09303 23.6276L2.10496 24.6586C1.97608 24.7875 1.97608 25.0023 2.10496 25.1311C2.14792 25.1741 2.23384 25.2171 2.31976 25.2171ZM16.926 23.6705C17.0119 23.6705 17.0978 23.6705 17.1837 23.5846L18.2147 22.5536C18.3436 22.4247 18.3436 22.2099 18.2147 22.081C18.0859 21.9521 17.8711 21.9521 17.7422 22.081L16.7112 23.112C16.5823 23.2409 16.5823 23.4557 16.7112 23.5846C16.7541 23.6276 16.84 23.6705 16.926 23.6705ZM16.926 25.2171C17.0119 25.2171 17.0978 25.1741 17.1837 25.1311L18.2147 24.1001C18.3436 23.9712 18.3436 23.7564 18.2147 23.6276C18.0859 23.4987 17.8711 23.4987 17.7422 23.6276L16.7112 24.6586C16.5823 24.7875 16.5823 25.0023 16.7112 25.1311C16.7541 25.1741 16.84 25.2171 16.926 25.2171Z"/>
</g>
</svg>
<svg viewBox="0 0 31 31">
<g fill="#5661CB" id="s4">
<path d="M17.2266 2.10547V4.38232H19.5034C18.7301 3.56609 17.871 2.7069 17.2266 2.10547Z"/>
<path d="M3.52295 10.3964C3.52295 10.6112 3.73775 10.826 3.95254 10.826H17.3988C17.6136 10.826 17.8284 10.6112 17.8284 10.3964C17.8284 10.1816 17.6136 9.9668 17.3988 9.9668H3.95254C3.73775 9.9668 3.52295 10.1816 3.52295 10.3964ZM17.3988 13.4036H3.95254C3.73775 13.4036 3.52295 13.6183 3.52295 13.8331C3.52295 14.0479 3.73775 14.2627 3.95254 14.2627H17.3988C17.6136 14.2627 17.8284 14.0479 17.8284 13.8331C17.8284 13.6183 17.6566 13.4036 17.3988 13.4036ZM17.3988 16.8403H3.95254C3.73775 16.8403 3.52295 17.0551 3.52295 17.2699C3.52295 17.4847 3.73775 17.6995 3.95254 17.6995H17.3988C17.6136 17.6995 17.8284 17.4847 17.8284 17.2699C17.8284 17.0551 17.6566 16.8403 17.3988 16.8403ZM17.3988 20.2771H3.95254C3.73775 20.2771 3.52295 20.4919 3.52295 20.7067C3.52295 20.9215 3.73775 21.1362 3.95254 21.1362H17.3988C17.6136 21.1362 17.8284 20.9215 17.8284 20.7067C17.8284 20.4489 17.6566 20.2771 17.3988 20.2771Z"/>
<path d="M21.0931 4.29594C18.4726 1.63246 17.5274 0.687351 17.0979 0.343675C17.0119 0.214797 16.8401 0.128878 16.6253 0.128878H0.601432C0.257757 0.128878 0 0.386635 0 0.687351V29.8998C0 30.2434 0.257757 30.5012 0.601432 30.5012H20.7924C21.0931 30.5012 21.3938 30.2434 21.3938 29.8998V4.85442C21.3938 4.72554 21.3508 4.5537 21.222 4.46778C21.179 4.42482 21.136 4.3389 21.0931 4.29594ZM17.2267 2.10501C17.8711 2.70644 18.7303 3.60859 19.5036 4.38186H17.2267V2.10501ZM20.1909 29.3413H1.1599V1.28878H16.1098V4.94033C16.1098 5.06921 16.1527 5.24105 16.2816 5.32697C16.4105 5.45585 16.5394 5.49881 16.6683 5.49881H20.1909V29.3413ZM30.3294 0H24.6587C24.315 0 24.0573 0.257757 24.0573 0.601432V29.8998C24.0573 30.2005 24.315 30.5012 24.6587 30.5012H30.3294C30.6301 30.5012 30.9308 30.2434 30.9308 29.8998V0.601432C30.8878 0.257757 30.6301 0 30.3294 0ZM29.7279 2.66348H28.2673C28.0525 2.66348 27.8377 2.87828 27.8377 3.09308C27.8377 3.30788 28.0525 3.52267 28.2673 3.52267H29.7279V6.10024H28.2673C28.0525 6.10024 27.8377 6.31504 27.8377 6.52983C27.8377 6.74463 28.0525 6.95943 28.2673 6.95943H29.7279V9.53699H28.2673C28.0525 9.53699 27.8377 9.75179 27.8377 9.96659C27.8377 10.1814 28.0525 10.3962 28.2673 10.3962H29.7279V12.9737H28.2673C28.0525 12.9737 27.8377 13.1885 27.8377 13.4033C27.8377 13.6181 28.0525 13.8329 28.2673 13.8329H29.7279V15.9379H28.2673C28.0525 15.9379 27.8377 16.1527 27.8377 16.3675C27.8377 16.5823 28.0525 16.7971 28.2673 16.7971H29.7279V19.3747H28.2673C28.0525 19.3747 27.8377 19.5895 27.8377 19.8043C27.8377 20.0191 28.0525 20.2339 28.2673 20.2339H29.7279V22.8115H28.2673C28.0525 22.8115 27.8377 23.0263 27.8377 23.2411C27.8377 23.4558 28.0525 23.6706 28.2673 23.6706H29.7279V26.2482H28.2673C28.0525 26.2482 27.8377 26.463 27.8377 26.6778C27.8377 26.8926 28.0525 27.1074 28.2673 27.1074H29.7279V29.2983H25.2172V1.1599H29.7279V2.66348Z"/>
</g>
</svg>
<svg viewBox="0 0 36 28">
<g fill="#ffffff" id="s1-hover">
<path d="M27.1503 12.8877C26.8066 12.9307 26.5488 13.1884 26.5488 13.4891C26.5488 13.7898 26.8066 14.0476 27.1503 14.0476C27.1503 14.0476 28.1383 14.0906 29.8567 15.8089L30.5011 16.4533H27.2362C26.8925 16.4533 26.6347 16.7111 26.6347 17.0548C26.6347 17.3984 26.8925 17.6562 27.2362 17.6562H33.2075L32.3484 16.6681C32.3054 16.6252 32.1336 16.4104 30.6729 14.9927C28.6109 12.9307 27.2791 12.8877 27.1503 12.8877Z"/>
<path d="M36 16.7971L32.3484 13.1456C30.2434 10.7399 27.537 10.3532 25.4749 10.2673V0H0V23.284H2.53461C2.49165 23.5418 2.49165 23.7566 2.49165 24.0143C2.49165 25.9475 4.08115 27.494 5.97136 27.494C7.90453 27.494 9.45107 25.9045 9.45107 24.0143C9.45107 23.7566 9.40811 23.5418 9.40811 23.284H22.0811C22.0382 23.5418 22.0382 23.7566 22.0382 24.0143C22.0382 25.9475 23.6277 27.494 25.5179 27.494C27.4081 27.494 28.9976 25.9045 28.9976 24.0143C28.9976 23.7566 28.9547 23.4988 28.9117 23.284H35.957V16.7971H36ZM5.97136 26.2912C4.68258 26.2912 3.65155 25.2601 3.65155 23.9714C3.65155 23.7136 3.69451 23.4988 3.78043 23.2411C3.90931 22.7685 4.25298 22.3389 4.68258 22.0382C5.06921 21.7804 5.49881 21.6086 5.97136 21.6086C6.44391 21.6086 6.91647 21.7375 7.26014 22.0382C7.68974 22.3389 7.99045 22.7685 8.16229 23.2411C8.20525 23.4988 8.29117 23.7136 8.29117 23.9714C8.29117 25.2601 7.26014 26.2912 5.97136 26.2912ZM22.5537 22.0811H8.93556C8.33413 21.136 7.21718 20.4916 6.01432 20.4916C4.81146 20.4916 3.69451 21.136 3.09308 22.0811H1.20286V1.20286H24.315V20.7064C23.5847 20.9642 22.9833 21.4368 22.5537 22.0811ZM25.5179 26.2912C24.2291 26.2912 23.1981 25.2601 23.1981 23.9714C23.1981 23.7136 23.241 23.4988 23.327 23.2411C23.4558 22.7685 23.7995 22.3389 24.2291 22.0382C24.6158 21.7804 25.0453 21.6086 25.5179 21.6086C25.9905 21.6086 26.42 21.7375 26.8067 21.9952C27.2363 22.253 27.537 22.7255 27.7088 23.1981C27.7947 23.4558 27.8377 23.6706 27.8377 23.9284C27.7947 25.2601 26.7637 26.2912 25.5179 26.2912ZM34.7542 22.0811H28.3962C27.7947 21.136 26.7208 20.4916 25.4749 20.4916H25.432V11.4702C28.1384 11.5561 29.9857 12.3294 31.4033 13.9618L34.7112 17.3126V22.0811H34.7542Z"/>
</g>
</svg>
<svg viewBox="0 0 29 31">
<g fill="#ffffff" id="s2-hover">
<path d="M28.5682 29.7279C28.4393 29.3842 27.5371 27.2363 26.4632 25.6897C26.0765 25.1313 25.6899 24.6587 25.2603 24.401C24.6589 23.9714 23.6708 23.6706 22.9405 23.4558C22.7687 23.4129 22.6398 23.3699 22.4679 23.327L22.2531 23.1981C21.6517 23.0263 21.6517 23.0263 20.7496 22.7255L20.5348 22.6826C19.3319 22.2959 18.2579 21.9523 17.6994 21.8234V19.3747C18.3438 18.6874 20.7496 15.895 21.308 12.0286C21.351 11.8568 21.351 11.642 21.3939 11.4702C22.0813 11.1265 22.5109 10.6969 22.7257 10.1814C23.1982 9.1074 22.5109 8.11933 22.2102 7.7327C22.1243 6.40095 21.7806 4.03819 20.1481 2.27685C18.7734 0.77327 16.7973 0 14.2627 0C12.1577 0 10.4393 0.644391 9.15051 1.97613C7.34622 3.82339 6.87366 6.44391 6.78774 7.77566C6.44407 8.16229 5.75672 9.1074 6.18631 10.1384C6.40111 10.6539 6.8307 11.0835 7.51805 11.4272C7.51805 11.599 7.56101 11.8138 7.56101 12.0286C7.56101 12.1146 7.56101 12.2005 7.60397 12.2864C8.11949 16.7112 10.1386 18.8162 10.8689 19.3747V21.7804C9.06459 22.2959 3.65171 23.9284 2.66364 24.8735C2.66364 24.8735 2.66364 24.9165 2.62068 24.9165C1.07414 26.463 0.0860726 29.8998 0.0431132 30.0286C-0.0428056 30.3294 0.129032 30.6301 0.429748 30.673C0.472707 30.716 0.515667 30.716 0.601586 30.716C0.859342 30.716 1.07414 30.5442 1.1171 30.3294C1.16006 30.2864 2.10517 26.9785 3.43691 25.5609C3.69466 25.3031 4.63977 24.8735 5.84264 24.4439V30.4582C5.84264 30.673 6.01447 30.8449 6.22927 30.8449C6.44407 30.8449 6.61591 30.673 6.61591 30.4582V24.1862C6.95958 24.0573 7.34622 23.9284 7.68989 23.7995V30.4582C7.68989 30.673 7.86173 30.8449 8.07653 30.8449C8.33428 30.8449 8.46316 30.673 8.46316 30.4582V23.5847C9.53715 23.2411 10.6541 22.8974 11.5562 22.6826C11.814 22.6396 11.9429 22.4248 11.9429 22.1671V19.1169C11.9429 18.9451 11.857 18.8162 11.6851 18.6874C11.6422 18.6874 9.23643 16.926 8.635 12.1575C8.635 12.0716 8.635 11.9857 8.59204 11.8998C10.0527 12.2864 12.0288 12.4582 14.6064 12.4582C17.0121 12.4582 18.9023 12.2864 20.234 11.8998C19.5897 15.852 16.7973 18.7303 16.7543 18.7733C16.6684 18.8592 16.5825 19.031 16.5825 19.1599V22.253C16.5825 22.5107 16.7543 22.6826 16.9691 22.7685C16.9691 22.7685 18.4727 23.2411 20.1481 23.7566V30.5012C20.1481 30.716 20.32 30.8878 20.5348 30.8878C20.7925 30.8878 20.9214 30.716 20.9214 30.5012V23.9284C21.308 24.0573 21.4369 24.1002 21.8665 24.2291L22.0383 24.2721V30.4582C22.0383 30.673 22.2102 30.8449 22.425 30.8449C22.6398 30.8449 22.8116 30.673 22.8116 30.4582V24.5298C23.456 24.7446 24.1863 25.0024 24.6159 25.2601C25.6469 25.9475 27.1076 28.9976 27.5371 30.1146C27.6231 30.2864 27.7949 30.4153 28.0097 30.4153C28.0527 30.4153 28.1386 30.4153 28.2245 30.3723C28.5682 30.3294 28.6971 29.9857 28.5682 29.7279ZM7.13142 9.75179C6.87366 9.15036 7.64693 8.33413 7.64693 8.33413C7.77581 8.20525 7.81877 8.03341 7.81877 7.81862C7.94765 6.61575 8.37724 4.25298 9.92378 2.66348C10.5252 2.06205 11.2126 1.63246 12.0718 1.33174V3.43675C12.0718 3.65155 12.2436 3.82339 12.4584 3.82339C12.7161 3.82339 12.845 3.65155 12.845 3.43675V1.20286C13.1887 1.1599 13.5324 1.11695 13.919 1.07399V4.03819C13.919 4.25298 14.0908 4.42482 14.3056 4.42482C14.5634 4.42482 14.6923 4.25298 14.6923 4.03819V1.07399C15.036 1.07399 15.3796 1.11695 15.6803 1.1599V3.43675C15.6803 3.65155 15.8522 3.82339 16.067 3.82339C16.2818 3.82339 16.4536 3.65155 16.4536 3.43675V1.33174C17.6135 1.63246 18.5586 2.19093 19.2889 2.9642C20.7496 4.5537 21.0073 6.78759 21.0503 7.94749H21.0932C21.0932 8.07637 21.1362 8.20525 21.2221 8.33413C21.2651 8.33413 21.9524 9.1074 21.6947 9.75179C21.4799 10.2673 20.3629 11.3842 14.5634 11.3842C8.46316 11.4272 7.34622 10.2673 7.13142 9.75179Z"/>
<path d="M19.8472 8.63483C19.8042 8.42004 19.5894 8.2482 19.3746 8.33412C16.1956 8.97851 12.9307 8.97851 9.75173 8.37708L9.49397 8.33412C9.23621 8.29116 9.06437 8.42004 9.02141 8.63483C8.97846 8.89259 9.10733 9.06443 9.32213 9.10739L9.57989 9.15035C11.1694 9.45106 12.8018 9.6229 14.4343 9.6229C16.1527 9.6229 17.8281 9.45106 19.5465 9.10739C19.7613 9.02147 19.8902 8.80667 19.8472 8.63483Z"/>
</g>
</svg>
<svg viewBox="0 0 29 27">
<g fill="#ffffff" id="s3-hover">
<path d="M13.2315 20.4057H0.472554C0.214797 20.4057 0 20.6205 0 20.8782V26.42C0 26.6777 0.214797 26.8925 0.472554 26.8925H13.2745C13.5322 26.8925 13.747 26.6777 13.747 26.4629V20.8782C13.747 20.6205 13.4893 20.4057 13.2315 20.4057ZM12.759 25.9474H0.945107V21.3508H12.8019C12.8019 21.3508 12.8019 25.9474 12.759 25.9474ZM27.7518 20.4057H14.9928C14.7351 20.4057 14.5203 20.6205 14.5203 20.8782V26.42C14.5203 26.6777 14.7351 26.8925 14.9928 26.8925H27.7947C28.0525 26.8925 28.2673 26.6777 28.2673 26.4629V20.8782C28.2673 20.6205 28.0525 20.4057 27.7518 20.4057ZM27.2792 25.9474H15.4654V21.3508H27.3222L27.2792 25.9474ZM7.81862 13.2314C7.56086 13.2314 7.34606 13.4462 7.34606 13.704V19.2458C7.34606 19.5035 7.56086 19.7183 7.81862 19.7183H20.6205C20.8783 19.7183 21.0931 19.5035 21.0931 19.2458V13.704C21.0931 13.4462 20.8783 13.2314 20.6205 13.2314H7.81862ZM8.29117 18.7732V14.1766H20.148L20.1909 18.7732H8.29117Z"/>
<path d="M8.76367 10.7397C9.02143 11.0834 9.40806 11.2982 9.83766 11.2982C10.2673 11.2982 10.6968 11.0404 10.9116 10.6968L12.2434 8.46288L13.0167 8.93544C13.0596 8.9784 13.1455 8.9784 13.1885 8.9784C13.3174 8.9784 13.4033 8.89248 13.4892 8.80656L13.704 8.41992H13.747L19.1169 9.27911L18.7303 9.79462C18.6443 9.88054 18.6014 9.96646 18.6014 10.1813C18.6014 10.3101 18.7303 10.3531 18.8162 10.439L25.0023 14.9498C25.0883 14.9927 25.1742 15.0357 25.3031 15.0357C25.4749 15.0357 25.6038 14.9927 25.6897 14.8638L27.3651 12.544C27.451 12.4581 27.5369 12.2433 27.494 12.1144C27.451 11.9856 27.4081 11.9426 27.3221 11.8567L21.136 7.43186C20.9212 7.30298 20.6205 7.34594 20.4916 7.51778L19.8042 8.46288L14.3054 7.60369L14.3914 7.43186C14.4343 7.34594 14.4773 7.21706 14.4343 7.13114C14.3914 7.04522 14.3484 7.00226 14.2625 6.9593L13.4892 6.44379L14.735 4.38174C14.9928 4.03806 14.9928 3.60847 14.8639 3.22183C14.6921 2.8352 14.3914 2.57744 14.0047 2.44856L4.12405 0.0428344C3.6515 -0.0860438 3.13599 0.0857939 2.87823 0.515388C2.53455 0.944982 2.53455 1.50346 2.87823 1.93305L8.76367 10.7397ZM21.0071 8.46288L26.42 12.4151L25.3031 13.9187L19.8472 9.96646L21.0071 8.46288ZM13.6181 7.34594L13.1026 8.11921L12.5011 7.73257L10.3961 6.40083C10.1813 6.27195 10.1384 6.01419 10.2673 5.7994L10.3102 5.71348C10.4391 5.49868 10.6968 5.45572 10.9116 5.5846L13.6181 7.34594ZM3.60854 1.0309C3.6515 0.987942 3.73742 0.944982 3.78038 0.944982H3.8663L13.704 3.35071C13.7899 3.35071 13.9188 3.43663 13.9618 3.52255C14.0047 3.60847 14.0047 3.73734 13.9188 3.82326L12.673 5.88532L11.2124 4.94021C10.7398 4.63949 10.0954 4.76837 9.7947 5.24092L9.62286 5.49868C9.49398 5.75644 9.45102 6.05715 9.49398 6.27195C9.5799 6.52971 9.66582 6.74451 9.96654 6.91634L11.556 7.90441L10.1813 10.1383C10.1384 10.2242 10.0095 10.3101 9.88062 10.3101C9.75174 10.3101 9.66582 10.2672 9.5799 10.1813L3.60854 1.37458C3.52262 1.28866 3.52262 1.15978 3.60854 1.0309ZM10.3961 14.8209L9.3651 15.8519C9.23622 15.9808 9.23622 16.1956 9.3651 16.3245C9.40806 16.3674 9.49398 16.4104 9.5799 16.4104C9.66582 16.4104 9.75174 16.4104 9.83766 16.3245L10.8687 15.2934C10.9976 15.1646 10.9976 14.9498 10.8687 14.8209C10.7398 14.692 10.525 14.692 10.3961 14.8209ZM10.3961 16.3674L9.3651 17.3984C9.23622 17.5273 9.23622 17.7421 9.3651 17.871C9.40806 17.914 9.49398 17.9569 9.5799 17.9569C9.66582 17.9569 9.75174 17.914 9.83766 17.871L10.8687 16.84C10.9976 16.7111 10.9976 16.4963 10.8687 16.3674C10.7398 16.2385 10.525 16.2385 10.3961 16.3674ZM2.31976 23.6705C2.40568 23.6705 2.49159 23.6705 2.53455 23.6276L3.56558 22.5965C3.69446 22.4677 3.69446 22.2529 3.56558 22.124C3.4367 21.9951 3.2219 21.9951 3.09303 22.124L2.10496 23.112C1.97608 23.2409 1.97608 23.4557 2.10496 23.5846C2.14792 23.6276 2.23384 23.6705 2.31976 23.6705ZM2.31976 25.2171C2.40568 25.2171 2.49159 25.1741 2.53455 25.1311L3.56558 24.1001C3.69446 23.9712 3.69446 23.7564 3.56558 23.6276C3.4367 23.4987 3.2219 23.4987 3.09303 23.6276L2.10496 24.6586C1.97608 24.7875 1.97608 25.0023 2.10496 25.1311C2.14792 25.1741 2.23384 25.2171 2.31976 25.2171ZM16.926 23.6705C17.0119 23.6705 17.0978 23.6705 17.1837 23.5846L18.2147 22.5536C18.3436 22.4247 18.3436 22.2099 18.2147 22.081C18.0859 21.9521 17.8711 21.9521 17.7422 22.081L16.7112 23.112C16.5823 23.2409 16.5823 23.4557 16.7112 23.5846C16.7541 23.6276 16.84 23.6705 16.926 23.6705ZM16.926 25.2171C17.0119 25.2171 17.0978 25.1741 17.1837 25.1311L18.2147 24.1001C18.3436 23.9712 18.3436 23.7564 18.2147 23.6276C18.0859 23.4987 17.8711 23.4987 17.7422 23.6276L16.7112 24.6586C16.5823 24.7875 16.5823 25.0023 16.7112 25.1311C16.7541 25.1741 16.84 25.2171 16.926 25.2171Z"/>
</g>
</svg>
<svg viewBox="0 0 31 31">
<g fill="#ffffff" id="s4-hover">
<path d="M17.2266 2.10547V4.38232H19.5034C18.7301 3.56609 17.871 2.7069 17.2266 2.10547Z"/>
<path d="M3.52295 10.3964C3.52295 10.6112 3.73775 10.826 3.95254 10.826H17.3988C17.6136 10.826 17.8284 10.6112 17.8284 10.3964C17.8284 10.1816 17.6136 9.9668 17.3988 9.9668H3.95254C3.73775 9.9668 3.52295 10.1816 3.52295 10.3964ZM17.3988 13.4036H3.95254C3.73775 13.4036 3.52295 13.6183 3.52295 13.8331C3.52295 14.0479 3.73775 14.2627 3.95254 14.2627H17.3988C17.6136 14.2627 17.8284 14.0479 17.8284 13.8331C17.8284 13.6183 17.6566 13.4036 17.3988 13.4036ZM17.3988 16.8403H3.95254C3.73775 16.8403 3.52295 17.0551 3.52295 17.2699C3.52295 17.4847 3.73775 17.6995 3.95254 17.6995H17.3988C17.6136 17.6995 17.8284 17.4847 17.8284 17.2699C17.8284 17.0551 17.6566 16.8403 17.3988 16.8403ZM17.3988 20.2771H3.95254C3.73775 20.2771 3.52295 20.4919 3.52295 20.7067C3.52295 20.9215 3.73775 21.1362 3.95254 21.1362H17.3988C17.6136 21.1362 17.8284 20.9215 17.8284 20.7067C17.8284 20.4489 17.6566 20.2771 17.3988 20.2771Z"/>
<path d="M21.0931 4.29594C18.4726 1.63246 17.5274 0.687351 17.0979 0.343675C17.0119 0.214797 16.8401 0.128878 16.6253 0.128878H0.601432C0.257757 0.128878 0 0.386635 0 0.687351V29.8998C0 30.2434 0.257757 30.5012 0.601432 30.5012H20.7924C21.0931 30.5012 21.3938 30.2434 21.3938 29.8998V4.85442C21.3938 4.72554 21.3508 4.5537 21.222 4.46778C21.179 4.42482 21.136 4.3389 21.0931 4.29594ZM17.2267 2.10501C17.8711 2.70644 18.7303 3.60859 19.5036 4.38186H17.2267V2.10501ZM20.1909 29.3413H1.1599V1.28878H16.1098V4.94033C16.1098 5.06921 16.1527 5.24105 16.2816 5.32697C16.4105 5.45585 16.5394 5.49881 16.6683 5.49881H20.1909V29.3413ZM30.3294 0H24.6587C24.315 0 24.0573 0.257757 24.0573 0.601432V29.8998C24.0573 30.2005 24.315 30.5012 24.6587 30.5012H30.3294C30.6301 30.5012 30.9308 30.2434 30.9308 29.8998V0.601432C30.8878 0.257757 30.6301 0 30.3294 0ZM29.7279 2.66348H28.2673C28.0525 2.66348 27.8377 2.87828 27.8377 3.09308C27.8377 3.30788 28.0525 3.52267 28.2673 3.52267H29.7279V6.10024H28.2673C28.0525 6.10024 27.8377 6.31504 27.8377 6.52983C27.8377 6.74463 28.0525 6.95943 28.2673 6.95943H29.7279V9.53699H28.2673C28.0525 9.53699 27.8377 9.75179 27.8377 9.96659C27.8377 10.1814 28.0525 10.3962 28.2673 10.3962H29.7279V12.9737H28.2673C28.0525 12.9737 27.8377 13.1885 27.8377 13.4033C27.8377 13.6181 28.0525 13.8329 28.2673 13.8329H29.7279V15.9379H28.2673C28.0525 15.9379 27.8377 16.1527 27.8377 16.3675C27.8377 16.5823 28.0525 16.7971 28.2673 16.7971H29.7279V19.3747H28.2673C28.0525 19.3747 27.8377 19.5895 27.8377 19.8043C27.8377 20.0191 28.0525 20.2339 28.2673 20.2339H29.7279V22.8115H28.2673C28.0525 22.8115 27.8377 23.0263 27.8377 23.2411C27.8377 23.4558 28.0525 23.6706 28.2673 23.6706H29.7279V26.2482H28.2673C28.0525 26.2482 27.8377 26.463 27.8377 26.6778C27.8377 26.8926 28.0525 27.1074 28.2673 27.1074H29.7279V29.2983H25.2172V1.1599H29.7279V2.66348Z"/>
</g>
</svg>
<svg viewBox="0 0 11 18">
<g fill="none" id="triangle">
<path d="M8.81309 1.60039L2.3942 8.01928C1.85234 8.56113 1.85234 9.43965 2.3942 9.9815L8.81309 16.4004" stroke="#7D7D7D" stroke-width="2.46667" stroke-linecap="round" stroke-linejoin="round"/>
</g>
</svg>
<svg viewBox="0 0 26 26">
<g fill="none" id="whatsapp">
<path d="M13.8125 24.375C11.7135 24.375 9.74154 23.8672 7.89648 22.8516L0 26L3.14844 18.1035C2.13281 16.2585 1.625 14.2865 1.625 12.1875C1.625 10.5286 1.94661 8.9502 2.58984 7.45215C3.23307 5.9541 4.10059 4.65918 5.19238 3.56738C6.28418 2.47559 7.5791 1.60807 9.07715 0.964844C10.5752 0.321615 12.1536 0 13.8125 0C15.4714 0 17.0498 0.321615 18.5479 0.964844C20.0459 1.60807 21.3408 2.47559 22.4326 3.56738C23.5244 4.65918 24.3919 5.9541 25.0352 7.45215C25.6784 8.9502 26 10.5286 26 12.1875C26 13.8464 25.6784 15.4248 25.0352 16.9229C24.3919 18.4209 23.5244 19.7158 22.4326 20.8076C21.3408 21.8994 20.0459 22.7669 18.5479 23.4102C17.0498 24.0534 15.4714 24.375 13.8125 24.375ZM17.875 14.625H16.25L15.3359 15.4375C14.5742 15.2344 13.639 14.5785 12.5303 13.4697C11.4215 12.361 10.7656 11.4258 10.5625 10.6641L11.375 9.75V8.125C11.375 7.83724 11.2734 7.54948 11.0703 7.26172C10.8672 6.97396 10.6429 6.7666 10.3975 6.63965C10.152 6.5127 9.97852 6.5 9.87695 6.60156L8.68359 7.79492C8.02344 8.45508 7.92611 9.4834 8.3916 10.8799C8.8571 12.2764 9.74577 13.6305 11.0576 14.9424C12.3695 16.2542 13.7236 17.1429 15.1201 17.6084C16.5166 18.0739 17.5449 17.9766 18.2051 17.3164L19.3984 16.123C19.5 16.0215 19.4873 15.848 19.3604 15.6025C19.2334 15.3571 19.026 15.1328 18.7383 14.9297C18.4505 14.7266 18.1628 14.625 17.875 14.625Z" fill="#46C756"/>
</g>
</svg>
<svg viewBox="0 0 21 21">
<g fill="none" id="whatsapp2">
<path d="M0.516602 20.5096L1.92385 15.3949C1.05858 13.8983 0.597402 12.1982 0.60216 10.4602C0.60216 5.01391 5.05219 0.585938 10.5197 0.585938C13.1726 0.585938 15.6639 1.61363 17.5324 3.47952C19.4056 5.34542 20.4373 7.82701 20.4326 10.4649C20.4326 15.9111 15.9824 20.3392 10.515 20.3392H10.5102C8.85098 20.3392 7.2202 19.9224 5.77013 19.1362L0.516602 20.5096ZM6.01737 17.3461L6.31687 17.5261C7.58154 18.2743 9.03161 18.6673 10.5102 18.6721H10.515C15.0554 18.6721 18.7542 14.9923 18.7542 10.4649C18.7542 8.27218 17.8985 6.21214 16.3438 4.65871C14.7891 3.10537 12.7162 2.25295 10.515 2.25295C5.96979 2.25295 2.27092 5.93268 2.27092 10.4601C2.27092 12.0088 2.70355 13.5195 3.53084 14.8266L3.72575 15.1392L2.89378 18.1654L6.01737 17.3461Z" fill="black" fill-opacity="0.24"/>
<path d="M0.966797 19.9816L2.30965 15.1034C1.48161 13.6726 1.04602 12.0499 1.04661 10.3983C1.04661 5.20677 5.29124 0.983398 10.4983 0.983398C13.0291 0.983398 15.4003 1.96558 17.1845 3.74281C18.9686 5.52013 19.9501 7.88676 19.9501 10.403C19.9501 15.5945 15.7054 19.8179 10.4983 19.8179H10.4937C8.91128 19.8179 7.35711 19.4203 5.97669 18.672L0.966797 19.9817V19.9816Z" fill="url(#paint0_linear)"/>
<path d="M0.624023 20.3228L2.0138 15.2716C1.15928 13.7937 0.703758 12.1146 0.708516 10.3982C0.708516 5.01955 5.10334 0.646484 10.503 0.646484C13.123 0.646484 15.5832 1.66135 17.4286 3.50412C19.2785 5.34689 20.2974 7.79768 20.2927 10.4028C20.2927 15.7814 15.8979 20.1545 10.4982 20.1545H10.4936C8.85811 20.1539 7.24877 19.7454 5.81234 18.9665L0.624023 20.3229V20.3228ZM6.05646 17.1986L6.35227 17.3763C7.60127 18.1153 9.03329 18.5035 10.4936 18.5082H10.4983C14.9823 18.5082 18.6353 14.8741 18.6353 10.4028C18.6353 8.23737 17.7901 6.20282 16.2547 4.66876C14.7194 3.1347 12.6722 2.29282 10.4983 2.29282C6.00954 2.29282 2.35661 5.92688 2.35661 10.3982C2.35661 11.9276 2.78382 13.4196 3.60086 14.7104L3.79338 15.0191L2.97168 18.0077L6.05646 17.1986Z" fill="white"/>
<path d="M8.05154 6.31529C7.86837 5.90836 7.67584 5.89896 7.50218 5.89431C7.36133 5.88965 7.19702 5.88965 7.03263 5.88965C6.86832 5.88965 6.60533 5.95044 6.37999 6.19362C6.15457 6.43687 5.52539 7.02618 5.52539 8.22825C5.52539 9.42549 6.40345 10.5854 6.52552 10.7491C6.64758 10.9128 8.22053 13.4524 10.7044 14.4299C12.7703 15.2438 13.1929 15.0801 13.6389 15.038C14.0897 14.9959 15.0851 14.4487 15.2917 13.8781C15.4936 13.3075 15.4936 12.821 15.4326 12.7182C15.3715 12.6152 15.2072 12.5545 14.963 12.4328C14.7189 12.3112 13.5169 11.7219 13.2915 11.6378C13.0661 11.5536 12.9018 11.5162 12.7422 11.7594C12.5778 12.0025 12.1083 12.5498 11.9674 12.7135C11.8265 12.8772 11.681 12.8959 11.4368 12.7743C11.1927 12.6527 10.4039 12.3954 9.46954 11.5629C8.74175 10.9175 8.24875 10.1177 8.10782 9.8745C7.96697 9.63133 8.09379 9.50026 8.21585 9.37875C8.3238 9.27114 8.45998 9.09342 8.58212 8.95312C8.70418 8.81282 8.74643 8.70994 8.82625 8.54619C8.90606 8.38252 8.86849 8.24222 8.80746 8.12063C8.74643 7.99896 8.26753 6.79698 8.05154 6.31529Z" fill="white"/>
</g>
<defs>
<linearGradient id="paint0_linear" x1="10.458" y1="19.9804" x2="10.458" y2="0.982258" gradientUnits="userSpaceOnUse">
<stop stop-color="#20B038"/>
<stop offset="1" stop-color="#60D66A"/>
</linearGradient>
</defs>
</svg>
<svg viewBox="0 0 25 25">
<g fill="none" id="telegram">
<path d="M12.5 0C5.59639 0 0 5.59639 0 12.5C0 19.4036 5.59639 25 12.5 25C19.4036 25 25 19.4036 25 12.5C25 5.59639 19.4036 0 12.5 0Z" fill="#40B3E0"/>
<path d="M18.5822 7.19081L16.3495 18.4475C16.3495 18.4475 16.0373 19.2282 15.1786 18.8535L10.0265 14.9035L8.15303 13.998L4.99932 12.9363C4.99932 12.9363 4.51533 12.7646 4.46846 12.3899C4.42158 12.0152 5.01494 11.8123 5.01494 11.8123L17.5517 6.89433C17.5517 6.89433 18.5821 6.44159 18.5821 7.19101" fill="white"/>
<path d="M9.63086 18.321C9.63086 18.321 9.48047 18.3069 9.29297 17.7136C9.10576 17.1203 8.15332 13.9979 8.15332 13.9979L15.7254 9.18926C15.7254 9.18926 16.1626 8.92383 16.147 9.18926C16.147 9.18926 16.225 9.23613 15.9907 9.45469C15.7566 9.67334 10.0425 14.8098 10.0425 14.8098" fill="#D2E5F1"/>
<path d="M12.0022 16.4172L9.96445 18.2752C9.96445 18.2752 9.80508 18.3961 9.63086 18.3203L10.0211 14.8691" fill="#B5CFE4"/>
</g>
</svg>
<svg viewBox="0 0 27 22">
<g fill="none" id="nav">
<path d="M1 1H25.3333M1 10.678H25.3333M1 20.3561H25.3333" stroke="#5661CB" stroke-width="2" stroke-linecap="round" stroke-linejoin="round"/>
</g>
</svg>
<svg viewBox="0 0 16 19">
<g fill="none" id="search2">
<path d="M5.94286 0.228516C7.519 0.228516 9.03059 0.953026 10.1451 2.24266C11.2596 3.5323 11.8857 5.28143 11.8857 7.10525C11.8857 8.80857 11.3463 10.3743 10.4594 11.5804L10.7063 11.8661H11.4286L16 17.1559L14.6286 18.7428L10.0571 13.453V12.6172L9.81029 12.3316C8.73193 13.3967 7.36065 13.9819 5.94286 13.982C4.36671 13.982 2.85512 13.2575 1.74062 11.9678C0.62612 10.6782 0 8.92907 0 7.10525C0 5.28143 0.62612 3.5323 1.74062 2.24266C2.85512 0.953026 4.36671 0.228516 5.94286 0.228516ZM5.94286 2.34443C3.65714 2.34443 1.82857 4.46035 1.82857 7.10525C1.82857 9.75015 3.65714 11.8661 5.94286 11.8661C8.22857 11.8661 10.0571 9.75015 10.0571 7.10525C10.0571 4.46035 8.22857 2.34443 5.94286 2.34443Z" fill="white"/>
</g>
</svg>
<svg viewBox="0 0 12 17">
<g fill="none" id="map">
<path d="M6.571 15.0508C6.34571 15.2935 6.1512 15.4957 6 15.6499C5.8488 15.4957 5.65429 15.2935 5.429 15.0508C4.87434 14.4531 4.13581 13.6125 3.39849 12.6396C2.66006 11.6653 1.93018 10.5678 1.38668 9.45626C0.840548 8.33928 0.5 7.24297 0.5 6.26157C0.5 4.78639 1.08059 3.37257 2.11257 2.33088C3.14438 1.28934 4.54283 0.705078 6 0.705078C7.45717 0.705078 8.85562 1.28934 9.88743 2.33088C10.9194 3.37257 11.5 4.78639 11.5 6.26157C11.5 7.24297 11.1595 8.33928 10.6133 9.45626C10.0698 10.5678 9.33994 11.6653 8.60151 12.6396C7.86419 13.6125 7.12566 14.4531 6.571 15.0508ZM6 9.78981C6.92978 9.78981 7.82052 9.41694 8.47653 8.75475C9.13238 8.09272 9.5 7.19581 9.5 6.26157C9.5 5.32732 9.13238 4.43041 8.47653 3.76838C7.82052 3.1062 6.92978 2.73332 6 2.73332C5.07022 2.73332 4.17948 3.1062 3.52347 3.76838C2.86762 4.43041 2.5 5.32732 2.5 6.26157C2.5 7.19581 2.86762 8.09272 3.52347 8.75475C4.17948 9.41694 5.07022 9.78981 6 9.78981Z" stroke="#5661CB"/>
</g>
</svg>
<svg viewBox="0 0 26 26">
<g fill="none" id="tel">
<path d="M15.5037 23.958C15.3087 23.9059 15.1197 23.8329 14.94 23.7401C11.5069 22.0216 8.62243 19.3558 6.61865 16.0495C4.67338 12.7525 3.71274 8.95506 3.85298 5.11651C3.87578 4.63952 4.01936 4.1765 4.26988 3.772C4.52041 3.3675 4.86946 3.03513 5.28346 2.80687L8.18668 1.15601C8.33444 1.07371 8.49768 1.02391 8.66573 1.00985C8.83378 0.995793 9.00287 1.0178 9.16195 1.07443C9.32598 1.13677 9.47454 1.23475 9.59718 1.3615C9.71982 1.48825 9.81357 1.64068 9.87183 1.80808L11.6559 6.91901C11.7214 7.11632 11.7226 7.32972 11.6594 7.52778C11.5962 7.72585 11.4719 7.89813 11.3048 8.01927L9.39475 9.39862C9.64033 10.8526 10.1595 12.2451 10.924 13.5005C11.6727 14.7899 12.6585 15.9218 13.8279 16.8351L16.0061 15.8592C16.1889 15.7779 16.3917 15.7548 16.5878 15.7931C16.7838 15.8314 16.9637 15.9292 17.1035 16.0736L20.7468 20.0994C20.8738 20.2301 20.9699 20.3881 21.028 20.5618C21.0862 20.7354 21.1047 20.9201 21.0824 21.1021C21.06 21.284 20.9974 21.4585 20.899 21.6124C20.8007 21.7663 20.6692 21.8956 20.5146 21.9908L17.6679 23.6628C17.3441 23.8542 16.9863 23.9787 16.6148 24.0294C16.2434 24.08 15.8658 24.0558 15.5037 23.958ZM8.76975 2.21407L5.86653 3.86493C5.63392 3.99223 5.43802 4.17868 5.29809 4.40595C5.15816 4.63322 5.07902 4.89347 5.06846 5.16113C4.93011 8.7613 5.82378 12.325 7.64145 15.4216C9.52731 18.5324 12.2419 21.0402 15.4728 22.6564C15.7171 22.7794 15.9878 22.839 16.2605 22.8299C16.5332 22.8208 16.7995 22.7433 17.0353 22.6043L19.882 20.9322L16.3639 17.0462L14.0236 18.0985C13.9341 18.1384 13.8363 18.1555 13.7388 18.1484C13.6413 18.1413 13.5469 18.1101 13.464 18.0575C12.0092 17.0319 10.7961 15.6932 9.91131 14.1373C8.96961 12.6312 8.37571 10.9291 8.17391 9.15795C8.17292 9.05369 8.19842 8.95093 8.24797 8.85954C8.29751 8.76816 8.36943 8.69123 8.45681 8.63616L10.5119 7.15069L8.76975 2.21407Z" fill="#5661CB"/>
</g>
</svg>
<svg viewBox="0 0 12 6">
<g fill="none" id="sort">
<path fill-rule="evenodd" clip-rule="evenodd" d="M11.0152 0.125877C11.0551 0.165677 11.0868 0.212958 11.1084 0.265012C11.13 0.317066 11.1411 0.37287 11.1411 0.429228C11.1411 0.485585 11.13 0.541389 11.1084 0.593443C11.0868 0.645497 11.0551 0.692779 11.0152 0.732579L5.87369 5.87412C5.83389 5.91403 5.78661 5.94568 5.73456 5.96728C5.6825 5.98888 5.6267 6 5.57034 6C5.51398 6 5.45818 5.98888 5.40613 5.96728C5.35407 5.94568 5.30679 5.91403 5.26699 5.87412L0.125444 0.732579C0.0449902 0.652125 -0.000207322 0.543007 -0.000207322 0.429228C-0.000207322 0.315449 0.0449902 0.20633 0.125444 0.125877C0.205898 0.0454229 0.315016 0.000224329 0.428795 0.000224329C0.542575 0.000224329 0.651693 0.0454229 0.732147 0.125877L5.57034 4.96493L10.4085 0.125877C10.4483 0.0859754 10.4956 0.0543181 10.5477 0.0327181C10.5997 0.0111181 10.6555 0 10.7119 0C10.7682 0 10.824 0.0111181 10.8761 0.0327181C10.9282 0.0543181 10.9754 0.0859754 11.0152 0.125877Z" fill="#5661CB"/>
</g>
</svg>
<svg viewBox="0 0 15 9">
<g fill="none" id="filter">
<path d="M0.5625 0C0.413316 0 0.270242 0.0592632 0.164752 0.164752C0.0592632 0.270242 0 0.413316 0 0.5625C0 0.711684 0.0592632 0.854758 0.164752 0.960248C0.270242 1.06574 0.413316 1.125 0.5625 1.125H14.4375C14.5867 1.125 14.7298 1.06574 14.8352 0.960248C14.9407 0.854758 15 0.711684 15 0.5625C15 0.413316 14.9407 0.270242 14.8352 0.164752C14.7298 0.0592632 14.5867 0 14.4375 0H0.5625ZM3 4.3125C3 4.16332 3.05926 4.02024 3.16475 3.91475C3.27024 3.80926 3.41332 3.75 3.5625 3.75H11.4375C11.5867 3.75 11.7298 3.80926 11.8352 3.91475C11.9407 4.02024 12 4.16332 12 4.3125C12 4.46168 11.9407 4.60476 11.8352 4.71025C11.7298 4.81574 11.5867 4.875 11.4375 4.875H3.5625C3.41332 4.875 3.27024 4.81574 3.16475 4.71025C3.05926 4.60476 3 4.46168 3 4.3125ZM6 8.016C6 7.86682 6.05926 7.72374 6.16475 7.61825C6.27024 7.51276 6.41332 7.4535 6.5625 7.4535H8.4375C8.58668 7.4535 8.72976 7.51276 8.83525 7.61825C8.94074 7.72374 9 7.86682 9 8.016C9 8.16518 8.94074 8.30826 8.83525 8.41375C8.72976 8.51924 8.58668 8.5785 8.4375 8.5785H6.5625C6.41332 8.5785 6.27024 8.51924 6.16475 8.41375C6.05926 8.30826 6 8.16518 6 8.016Z" fill="#5661CB"/>
</g>
</svg>
<svg viewBox="0 0 19 41">
<g fill="none" id="slider">
<path fill-rule="evenodd" clip-rule="evenodd" d="M18.3614 0.459141C18.237 0.3136 18.0892 0.198129 17.9265 0.119342C17.7638 0.040555 17.5894 0 17.4132 0C17.2371 0 17.0626 0.040555 16.8999 0.119342C16.7372 0.198129 16.5894 0.3136 16.465 0.459141L0.393682 19.2131C0.268961 19.3583 0.170008 19.5307 0.102491 19.7206C0.0349751 19.9105 0.000221252 20.114 0.000221252 20.3196C0.000221252 20.5252 0.0349751 20.7287 0.102491 20.9186C0.170008 21.1084 0.268961 21.2809 0.393682 21.4261L16.465 40.18C16.7165 40.4735 17.0576 40.6384 17.4132 40.6384C17.7689 40.6384 18.1099 40.4735 18.3614 40.18C18.6129 39.8866 18.7542 39.4886 18.7542 39.0736C18.7542 38.6586 18.6129 38.2605 18.3614 37.9671L3.23563 20.3196L18.3614 2.67211C18.4861 2.52694 18.5851 2.35448 18.6526 2.16461C18.7201 1.97474 18.7549 1.77119 18.7549 1.56562C18.7549 1.36006 18.7201 1.15651 18.6526 0.966643C18.5851 0.776774 18.4861 0.604314 18.3614 0.459141Z" fill="#5661CB"/>
</g>
</svg>
<svg viewBox="0 0 20 20">
<g fill="none" id="calc">
<path d="M18.75 0H1.25C0.911458 0 0.61849 0.123698 0.371094 0.371094C0.123698 0.61849 0 0.911458 0 1.25V18.75C0 19.0885 0.123698 19.3815 0.371094 19.6289C0.61849 19.8763 0.911458 20 1.25 20H18.75C19.0885 20 19.3815 19.8763 19.6289 19.6289C19.8763 19.3815 20 19.0885 20 18.75V1.25C20 1.02865 19.9447 0.820312 19.834 0.625C19.7233 0.429688 19.5703 0.276693 19.375 0.166016C19.1797 0.0553385 18.9714 0 18.75 0ZM18.75 18.75H1.25V1.25H18.75V18.75ZM4.375 6.875H5.625V8.125C5.625 8.30729 5.68685 8.45703 5.81055 8.57422C5.93424 8.69141 6.08073 8.75 6.25 8.75C6.41927 8.75 6.56576 8.69141 6.68945 8.57422C6.81315 8.45703 6.875 8.30729 6.875 8.125V6.875H8.125C8.29427 6.875 8.44075 6.81641 8.56445 6.69922C8.68815 6.58203 8.75 6.43555 8.75 6.25977C8.75 6.08398 8.68815 5.93424 8.56445 5.81055C8.44075 5.68685 8.29427 5.625 8.125 5.625H6.875V4.375C6.875 4.20573 6.81315 4.05924 6.68945 3.93555C6.56576 3.81185 6.41927 3.75 6.25 3.75C6.08073 3.75 5.93424 3.81185 5.81055 3.93555C5.68685 4.05924 5.625 4.20573 5.625 4.375V5.625H4.375C4.20573 5.625 4.05924 5.68685 3.93555 5.81055C3.81185 5.93424 3.75 6.08398 3.75 6.25977C3.75 6.43555 3.81185 6.58203 3.93555 6.69922C4.05924 6.81641 4.20573 6.875 4.375 6.875ZM8.4668 11.5527C8.3431 11.429 8.19336 11.3672 8.01758 11.3672C7.8418 11.3672 7.69531 11.4258 7.57812 11.543L6.25 12.8711L4.92188 11.543C4.80469 11.4258 4.6582 11.3672 4.48242 11.3672C4.30664 11.3672 4.1569 11.429 4.0332 11.5527C3.90951 11.6764 3.84766 11.8229 3.84766 11.9922C3.84766 12.1615 3.91276 12.3047 4.04297 12.4219L5.37109 13.75L4.04297 15.0781C3.96484 15.1562 3.90951 15.2507 3.87695 15.3613C3.8444 15.472 3.8444 15.5794 3.87695 15.6836C3.90951 15.7878 3.96484 15.8789 4.04297 15.957C4.09505 16.0221 4.16016 16.071 4.23828 16.1035C4.31641 16.1361 4.39779 16.1523 4.48242 16.1523C4.56706 16.1523 4.64844 16.1361 4.72656 16.1035C4.80469 16.071 4.86979 16.0221 4.92188 15.957L6.25 14.6484L7.57812 15.957C7.63021 16.0221 7.69531 16.071 7.77344 16.1035C7.85156 16.1361 7.93294 16.1523 8.01758 16.1523C8.10221 16.1523 8.18359 16.1361 8.26172 16.1035C8.33984 16.071 8.40495 16.0221 8.45703 15.957C8.75651 15.6706 8.75651 15.3776 8.45703 15.0781L7.12891 13.75L8.45703 12.4219C8.58724 12.3047 8.65234 12.1615 8.65234 11.9922C8.65234 11.8229 8.5905 11.6764 8.4668 11.5527ZM11.875 6.875H15.625C15.7943 6.875 15.9408 6.81641 16.0645 6.69922C16.1882 6.58203 16.25 6.43555 16.25 6.25977C16.25 6.08398 16.1882 5.93424 16.0645 5.81055C15.9408 5.68685 15.7943 5.625 15.625 5.625H11.875C11.7057 5.625 11.5592 5.68685 11.4355 5.81055C11.3118 5.93424 11.25 6.08398 11.25 6.25977C11.25 6.43555 11.3118 6.58203 11.4355 6.69922C11.5592 6.81641 11.7057 6.875 11.875 6.875ZM11.875 13.125H15.625C15.7943 13.125 15.9408 13.0664 16.0645 12.9492C16.1882 12.832 16.25 12.6855 16.25 12.5098C16.25 12.334 16.1882 12.1842 16.0645 12.0605C15.9408 11.9368 15.7943 11.875 15.625 11.875H11.875C11.7057 11.875 11.5592 11.9368 11.4355 12.0605C11.3118 12.1842 11.25 12.334 11.25 12.5098C11.25 12.6855 11.3118 12.832 11.4355 12.9492C11.5592 13.0664 11.7057 13.125 11.875 13.125ZM11.875 15.625H15.625C15.7943 15.625 15.9408 15.5664 16.0645 15.4492C16.1882 15.332 16.25 15.1855 16.25 15.0098C16.25 14.834 16.1882 14.6842 16.0645 14.5605C15.9408 14.4368 15.7943 14.375 15.625 14.375H11.875C11.7057 14.375 11.5592 14.4368 11.4355 14.5605C11.3118 14.6842 11.25 14.834 11.25 15.0098C11.25 15.1855 11.3118 15.332 11.4355 15.4492C11.5592 15.5664 11.7057 15.625 11.875 15.625Z" fill="#5661CB"/>
</g>
</svg>
<svg viewBox="0 0 26 20">
<g fill="none" id="delivery">
<path d="M19.6087 9.375C19.3605 9.40625 19.1743 9.59375 19.1743 9.8125C19.1743 10.0312 19.3605 10.2188 19.6087 10.2188C19.6087 10.2188 20.3223 10.25 21.5633 11.5L22.0287 11.9688H19.6707C19.4225 11.9688 19.2364 12.1563 19.2364 12.4063C19.2364 12.6563 19.4225 12.8437 19.6707 12.8437H23.9834L23.3629 12.125C23.3318 12.0938 23.2077 11.9375 22.1528 10.9063C20.6636 9.40625 19.7018 9.375 19.6087 9.375Z" fill="#5661CB"/>
<path d="M26 12.2188L23.3628 9.5625C21.8425 7.8125 19.8878 7.53125 18.3986 7.46875V0H0V16.9375H1.83055C1.79952 17.125 1.79952 17.2812 1.79952 17.4688C1.79952 18.875 2.94749 20 4.31265 20C5.70883 20 6.82578 18.8438 6.82578 17.4688C6.82578 17.2812 6.79475 17.125 6.79475 16.9375H15.9475C15.9165 17.125 15.9165 17.2812 15.9165 17.4688C15.9165 18.875 17.0644 20 18.4296 20C19.7948 20 20.9427 18.8438 20.9427 17.4688C20.9427 17.2812 20.9117 17.0938 20.8807 16.9375H25.969V12.2188H26ZM4.31265 19.125C3.38186 19.125 2.63723 18.375 2.63723 17.4375C2.63723 17.25 2.66826 17.0938 2.73031 16.9062C2.82339 16.5625 3.0716 16.25 3.38186 16.0312C3.6611 15.8438 3.97136 15.7188 4.31265 15.7188C4.65394 15.7188 4.99523 15.8125 5.24344 16.0312C5.5537 16.25 5.77088 16.5625 5.89499 16.9062C5.92601 17.0938 5.98807 17.25 5.98807 17.4375C5.98807 18.375 5.24344 19.125 4.31265 19.125ZM16.2888 16.0625H6.45346C6.01909 15.375 5.21241 14.9062 4.34368 14.9062C3.47494 14.9062 2.66826 15.375 2.23389 16.0625H0.868735V0.875H17.5609V15.0625C17.0334 15.25 16.599 15.5938 16.2888 16.0625ZM18.4296 19.125C17.4988 19.125 16.7542 18.375 16.7542 17.4375C16.7542 17.25 16.7852 17.0938 16.8473 16.9062C16.9403 16.5625 17.1885 16.25 17.4988 16.0312C17.778 15.8438 18.0883 15.7188 18.4296 15.7188C18.7709 15.7188 19.0811 15.8125 19.3604 16C19.6706 16.1875 19.8878 16.5312 20.0119 16.875C20.074 17.0625 20.105 17.2188 20.105 17.4062C20.074 18.375 19.3294 19.125 18.4296 19.125ZM25.1002 16.0625H20.5084C20.074 15.375 19.2983 14.9062 18.3986 14.9062H18.3675V8.34375C20.3222 8.40625 21.6563 8.96875 22.6802 10.1562L25.0692 12.5938V16.0625H25.1002Z" fill="#5661CB"/>
</g>
</svg>
<svg viewBox="0 0 15 16">
<g fill="none" id="delete">
<path d="M4.67969 1.91406H4.53125C4.61289 1.91406 4.67969 1.84727 4.67969 1.76562V1.91406H10.3203V1.76562C10.3203 1.84727 10.3871 1.91406 10.4688 1.91406H10.3203V3.25H11.6562V1.76562C11.6562 1.11064 11.1237 0.578125 10.4688 0.578125H4.53125C3.87627 0.578125 3.34375 1.11064 3.34375 1.76562V3.25H4.67969V1.91406ZM14.0312 3.25H0.96875C0.640332 3.25 0.375 3.51533 0.375 3.84375V4.4375C0.375 4.51914 0.441797 4.58594 0.523438 4.58594H1.64414L2.10244 14.29C2.13213 14.9228 2.65537 15.4219 3.28809 15.4219H11.7119C12.3465 15.4219 12.8679 14.9246 12.8976 14.29L13.3559 4.58594H14.4766C14.5582 4.58594 14.625 4.51914 14.625 4.4375V3.84375C14.625 3.51533 14.3597 3.25 14.0312 3.25ZM11.569 14.0859H3.43096L2.98193 4.58594H12.0181L11.569 14.0859Z" fill="#5661CB"/>
</g>
</svg>
<svg viewBox="0 0 20 14">
<g fill="none" id="cart_in">
<path d="M0.769457 6.92293L6.41048 12.564C6.6937 12.8472 7.1529 12.8472 7.43612 12.564L19.231 0.76908" stroke="#5661CB" stroke-width="1.45048" stroke-linecap="round" stroke-linejoin="round"/>
</g>
</svg>
<svg viewBox="0 0 27 27">
  <g fill="none" id="cart-white">
    <path d="M9.542 27c1.116 0 2.02-.924 2.02-2.065 0-1.14-.904-2.064-2.02-2.064-1.115 0-2.02.924-2.02 2.064 0 1.14.905 2.065 2.02 2.065zm12.273 0c1.115 0 2.02-.924 2.02-2.065 0-1.14-.905-2.064-2.02-2.064-1.116 0-2.02.924-2.02 2.064 0 1.14.904 2.065 2.02 2.065zM27 4.176c-.078-.17-.118-.851-.12-1.022.002-.171.042-.342.12-.511H8l1 1.533h18z" fill="#fff"></path>
    <path d="M24.508 10.024h-.377l-1.122 5.047H9.542L5.44 1.793a.921.921 0 00-.225-.372.894.894 0 00-.368-.224L1.167.04a.883.883 0 00-.688.066.917.917 0 00-.44.544.94.94 0 00.066.702.906.906 0 00.532.45L3.86 2.811l4.12 13.305-1.472 1.23-.117.119a2.47 2.47 0 00-.583 1.542 2.476 2.476 0 00.511 1.569c.245.304.556.545.908.705.353.159.737.232 1.121.212h14.984a.888.888 0 00.634-.268.928.928 0 000-1.298.888.888 0 00-.634-.269H8.205a.592.592 0 01-.505-.314.626.626 0 01.002-.604l2.164-1.835h13.86a.885.885 0 00.575-.194.92.92 0 00.324-.521l1.409-6.341c-.5.117-1.013.176-1.526.174z" fill="#fff"></path>
  </g>
  </svg>
  <svg viewBox="0 0 27 27">
  <g fill="none" id="cart-full-white">
    <path d="M8.885 27c1.04 0 1.881-.878 1.881-1.96 0-1.082-.842-1.96-1.88-1.96-1.04 0-1.881.878-1.881 1.96 0 1.082.842 1.96 1.88 1.96zm11.428 0c1.038 0 1.88-.878 1.88-1.96 0-1.082-.842-1.96-1.88-1.96-1.04 0-1.881.878-1.881 1.96 0 1.082.842 1.96 1.88 1.96zM16.61 5.226a6.817 6.817 0 01-.06-.871c.002-.292.021-.582.06-.871H7.346l.544 1.742h8.718z" fill="#fff"></path>
    <path d="M22.82 10.887h-.35l-1.046 4.79H8.885L5.065 3.076a.878.878 0 00-.209-.354.83.83 0 00-.343-.212l-3.427-1.1a.807.807 0 00-.64.063.867.867 0 00-.409.516.908.908 0 00.06.667.848.848 0 00.496.426l3 .958 3.838 12.63-1.371 1.167-.109.113a2.372 2.372 0 00-.543 1.464 2.38 2.38 0 00.476 1.488c.228.29.518.518.846.67.328.15.685.22 1.044.201h13.951a.82.82 0 00.591-.255.89.89 0 00.245-.616.89.89 0 00-.245-.615.82.82 0 00-.59-.256H7.64a.544.544 0 01-.272-.084.575.575 0 01-.198-.214.603.603 0 01.002-.573l2.014-1.742h12.907a.813.813 0 00.535-.183.876.876 0 00.301-.496l1.312-6.018a6.036 6.036 0 01-1.42.165zm0-2.177c2.31 0 4.18-1.95 4.18-4.355C27 1.95 25.129 0 22.82 0c-2.308 0-4.18 1.95-4.18 4.355 0 2.405 1.872 4.355 4.18 4.355z" fill="#fff"></path>
  </g>
  </svg>
<svg viewBox="0 0 20 14">
<g fill="none" id="cart_in-white">
<path d="M0.769457 6.92293L6.41048 12.564C6.6937 12.8472 7.1529 12.8472 7.43612 12.564L19.231 0.76908" stroke="#fff" stroke-width="1.45048" stroke-linecap="round" stroke-linejoin="round"/>
</g>
</svg>
</svg>