<svg width="21" height="21" viewBox="0 0 21 21" fill="none" xmlns="http://www.w3.org/2000/svg">
<g clip-path="url(#clip0_540_166)">
<path d="M0.516602 20.5096L1.92385 15.3949C1.05858 13.8983 0.597402 12.1982 0.60216 10.4602C0.60216 5.01391 5.05219 0.585938 10.5197 0.585938C13.1726 0.585938 15.6639 1.61363 17.5324 3.47952C19.4056 5.34542 20.4373 7.82701 20.4326 10.4649C20.4326 15.9111 15.9824 20.3392 10.515 20.3392H10.5102C8.85098 20.3392 7.2202 19.9224 5.77013 19.1362L0.516602 20.5096ZM6.01737 17.3461L6.31687 17.5261C7.58154 18.2743 9.03161 18.6673 10.5102 18.6721H10.515C15.0554 18.6721 18.7542 14.9923 18.7542 10.4649C18.7542 8.27218 17.8985 6.21214 16.3438 4.65871C14.7891 3.10537 12.7162 2.25295 10.515 2.25295C5.96979 2.25295 2.27092 5.93268 2.27092 10.4601C2.27092 12.0088 2.70355 13.5195 3.53084 14.8266L3.72575 15.1392L2.89379 18.1654L6.01737 17.3461Z" fill="black" fill-opacity="0.24"/>
<path d="M0.966309 19.9816L2.30916 15.1034C1.48112 13.6726 1.04553 12.0499 1.04613 10.3983C1.04613 5.20677 5.29075 0.983398 10.4978 0.983398C13.0286 0.983398 15.3998 1.96558 17.184 3.74281C18.9681 5.52013 19.9496 7.88676 19.9496 10.403C19.9496 15.5945 15.7049 19.8179 10.4978 19.8179H10.4932C8.91079 19.8179 7.35662 19.4203 5.9762 18.672L0.966309 19.9817V19.9816Z" fill="url(#paint0_linear_540_166)"/>
<path d="M0.623535 20.3228L2.01331 15.2716C1.15879 13.7937 0.70327 12.1146 0.708027 10.3982C0.708027 5.01955 5.10285 0.646484 10.5026 0.646484C13.1225 0.646484 15.5828 1.66135 17.4281 3.50412C19.278 5.34689 20.2969 7.79768 20.2922 10.4028C20.2922 15.7814 15.8974 20.1545 10.4977 20.1545H10.4931C8.85762 20.1539 7.24829 19.7454 5.81185 18.9665L0.623535 20.3229V20.3228ZM6.05597 17.1986L6.35178 17.3763C7.60078 18.1153 9.0328 18.5035 10.4931 18.5082H10.4978C14.9818 18.5082 18.6348 14.8741 18.6348 10.4028C18.6348 8.23737 17.7896 6.20282 16.2543 4.66876C14.7189 3.1347 12.6717 2.29282 10.4978 2.29282C6.00905 2.29282 2.35612 5.92688 2.35612 10.3982C2.35612 11.9276 2.78334 13.4196 3.60037 14.7104L3.79289 15.0191L2.97119 18.0077L6.05597 17.1986Z" fill="white"/>
<path d="M8.05154 6.31529C7.86837 5.90836 7.67584 5.89896 7.50218 5.89431C7.36133 5.88965 7.19702 5.88965 7.03263 5.88965C6.86832 5.88965 6.60533 5.95044 6.37999 6.19362C6.15457 6.43687 5.52539 7.02618 5.52539 8.22825C5.52539 9.42549 6.40345 10.5854 6.52552 10.7491C6.64758 10.9128 8.22053 13.4524 10.7044 14.43C12.7703 15.2438 13.1929 15.0801 13.6389 15.038C14.0897 14.9959 15.0851 14.4487 15.2917 13.8781C15.4936 13.3075 15.4936 12.821 15.4326 12.7182C15.3715 12.6152 15.2072 12.5545 14.963 12.4328C14.7189 12.3112 13.5169 11.7219 13.2915 11.6378C13.0661 11.5536 12.9018 11.5162 12.7422 11.7594C12.5778 12.0025 12.1083 12.5498 11.9674 12.7135C11.8265 12.8772 11.681 12.8959 11.4368 12.7743C11.1927 12.6527 10.4039 12.3954 9.46954 11.5629C8.74175 10.9175 8.24875 10.1177 8.10782 9.8745C7.96697 9.63133 8.09379 9.50026 8.21585 9.37875C8.3238 9.27114 8.45998 9.09342 8.58212 8.95312C8.70418 8.81282 8.74643 8.70994 8.82625 8.54619C8.90606 8.38252 8.86849 8.24222 8.80746 8.12063C8.74643 7.99896 8.26753 6.79698 8.05154 6.31529Z" fill="white"/>
</g>
<defs>
<linearGradient id="paint0_linear_540_166" x1="10.4576" y1="19.9804" x2="10.4576" y2="0.982258" gradientUnits="userSpaceOnUse">
<stop stop-color="#20B038"/>
<stop offset="1" stop-color="#60D66A"/>
</linearGradient>
<clipPath id="clip0_540_166">
<rect width="21" height="21" fill="white"/>
</clipPath>
</defs>
</svg>
