<svg width="67" height="53" viewBox="0 0 67 53" fill="none" xmlns="http://www.w3.org/2000/svg">
<g clip-path="url(#clip0_566_2206)">
<path d="M12.1805 52.7368V49.2289C12.1805 47.8839 11.376 47.0072 9.99698 47.0072C9.30761 47.0072 8.56067 47.241 8.04351 48.0011C7.64151 47.3579 7.06704 47.0072 6.2052 47.0072C5.63047 47.0072 5.05626 47.1824 4.59642 47.8256V47.1241H3.38989V52.7368H4.59642V49.638C4.59642 48.6443 5.11357 48.1764 5.9181 48.1764C6.7221 48.1764 7.12462 48.7026 7.12462 49.638V52.7368H8.33114V49.638C8.33114 48.6443 8.90535 48.1764 9.6523 48.1764C10.4568 48.1764 10.8588 48.7026 10.8588 49.638V52.7368H12.1805ZM30.0483 47.1241H28.0951V45.4286H26.8886V47.1241H25.7969V48.2347H26.8883V50.8074C26.8883 52.0938 27.4055 52.8537 28.7845 52.8537C29.3016 52.8537 29.8758 52.6784 30.2784 52.4446L29.9334 51.392C29.5887 51.6259 29.1867 51.6845 28.8994 51.6845C28.3249 51.6845 28.0951 51.3337 28.0951 50.7489V48.2347H30.0483V47.1241ZM40.2752 47.0069C39.5859 47.0069 39.1263 47.3579 38.8389 47.8256V47.1241H37.6324V52.7368H38.8389V49.5797C38.8389 48.6443 39.2409 48.118 39.9879 48.118C40.2176 48.118 40.505 48.1766 40.7348 48.235L41.0795 47.0658C40.8497 47.0072 40.505 47.0072 40.2752 47.0072V47.0069ZM24.8202 47.5918C24.2455 47.1824 23.4412 47.0072 22.5794 47.0072C21.2006 47.0072 20.2815 47.7087 20.2815 48.8195C20.2815 49.7552 20.9708 50.2812 22.1774 50.4567L22.7518 50.5153C23.3839 50.6319 23.7286 50.8074 23.7286 51.0999C23.7286 51.509 23.269 51.8014 22.4645 51.8014C21.6602 51.8014 21.0282 51.509 20.6259 51.2168L20.0514 52.1522C20.6835 52.6198 21.5453 52.8537 22.4069 52.8537C24.0157 52.8537 24.9351 52.0938 24.9351 51.0413C24.9351 50.0473 24.1882 49.5211 23.0389 49.3458L22.4645 49.2872C21.9473 49.2286 21.5453 49.112 21.5453 48.7612C21.5453 48.3519 21.9473 48.118 22.5794 48.118C23.269 48.118 23.9584 48.4102 24.3031 48.5857L24.8202 47.5918ZM56.8794 47.0072C56.1898 47.0072 55.7302 47.3579 55.4429 47.8256V47.1241H54.2364V52.7368H55.4429V49.5797C55.4429 48.6443 55.8451 48.118 56.5918 48.118C56.8219 48.118 57.1092 48.1766 57.339 48.235L57.6837 47.0658C57.4539 47.0072 57.1092 47.0072 56.8794 47.0072ZM41.4817 49.9304C41.4817 51.6259 42.6307 52.8537 44.4119 52.8537C45.2162 52.8537 45.7907 52.6784 46.3652 52.2107L45.7907 51.2168C45.3311 51.5676 44.8715 51.7428 44.3544 51.7428C43.3776 51.7428 42.6883 51.0413 42.6883 49.9304C42.6883 48.8781 43.3776 48.1764 44.3544 48.118C44.8715 48.118 45.3311 48.2933 45.7907 48.6443L46.3652 47.6504C45.7907 47.1824 45.2162 47.0072 44.4119 47.0072C42.6307 47.0072 41.4817 48.235 41.4817 49.9304ZM52.6278 49.9304V47.1241H51.4213V47.8256C51.019 47.2996 50.4446 47.0072 49.6976 47.0072C48.1464 47.0072 46.9399 48.235 46.9399 49.9304C46.9399 51.6259 48.1464 52.8537 49.6976 52.8537C50.5019 52.8537 51.0766 52.5615 51.4213 52.0352V52.7368H52.6278V49.9304ZM48.2037 49.9304C48.2037 48.9365 48.8358 48.118 49.8698 48.118C50.8466 48.118 51.5362 48.8781 51.5362 49.9304C51.5362 50.9244 50.8466 51.7428 49.8698 51.7428C48.8358 51.6842 48.2037 50.9244 48.2037 49.9304ZM33.783 47.0072C32.1742 47.0072 31.025 48.1764 31.025 49.9304C31.025 51.6845 32.174 52.8537 33.8403 52.8537C34.6446 52.8537 35.4491 52.6198 36.0812 52.0938L35.5064 51.2168C35.0469 51.5676 34.4724 51.8014 33.8979 51.8014C33.151 51.8014 32.404 51.4506 32.2316 50.4564H36.311V49.989C36.3686 48.1764 35.3342 47.0072 33.7828 47.0072H33.783ZM33.783 48.0594C34.5297 48.0594 35.0471 48.5274 35.1618 49.4044H32.2891C32.404 48.6443 32.9212 48.0594 33.783 48.0594ZM63.7163 49.9304V44.9023H62.5098V47.8256C62.1075 47.2996 61.5331 47.0072 60.7861 47.0072C59.2349 47.0072 58.0284 48.235 58.0284 49.9304C58.0284 51.6259 59.2349 52.8537 60.7861 52.8537C61.5906 52.8537 62.1651 52.5615 62.5098 52.0352V52.7368H63.7163V49.9304ZM59.2925 49.9304C59.2925 48.9365 59.9243 48.118 60.9586 48.118C61.9353 48.118 62.6247 48.8781 62.6247 49.9304C62.6247 50.9244 61.9353 51.7428 60.9586 51.7428C59.9243 51.6842 59.2925 50.9244 59.2925 49.9304ZM18.9598 49.9304V47.1241H17.7533V47.8256C17.351 47.2996 16.7765 47.0072 16.0296 47.0072C14.4784 47.0072 13.2719 48.235 13.2719 49.9304C13.2719 51.6259 14.4784 52.8537 16.0296 52.8537C16.8341 52.8537 17.4086 52.5615 17.7533 52.0352V52.7368H18.9598V49.9304ZM14.4784 49.9304C14.4784 48.9365 15.1104 48.118 16.1445 48.118C17.1212 48.118 17.8109 48.8781 17.8109 49.9304C17.8109 50.9244 17.1212 51.7428 16.1445 51.7428C15.1104 51.6842 14.4784 50.9244 14.4784 49.9304Z" fill="black"/>
<path d="M24.4177 4.50195H42.5156V37.5939H24.4177V4.50195Z" fill="#FF5F00"/>
<path d="M25.567 21.0479C25.567 14.3244 28.6695 8.36068 33.438 4.5018C29.9336 1.69547 25.5097 0 20.6836 0C9.24993 0 0 9.41296 0 21.0479C0 32.6826 9.24993 42.0958 20.6834 42.0958C25.5095 42.0958 29.9333 40.4004 33.438 37.5938C28.6695 33.7935 25.567 27.7715 25.567 21.0479Z" fill="#EB001B"/>
<path d="M66.9336 21.0479C66.9336 32.6826 57.6837 42.0958 46.2502 42.0958C41.4241 42.0958 37.0003 40.4004 33.4956 37.5938C38.3217 33.7352 41.3668 27.7715 41.3668 21.0479C41.3668 14.3244 38.2641 8.36068 33.4956 4.5018C37 1.69547 41.4241 0 46.2502 0C57.6837 0 66.9338 9.47155 66.9338 21.0479H66.9336Z" fill="#F79E1B"/>
</g>
<defs>
<clipPath id="clip0_566_2206">
<rect width="67" height="53" fill="white"/>
</clipPath>
</defs>
</svg>
