<svg width="17" height="22" viewBox="0 0 17 22" fill="none" xmlns="http://www.w3.org/2000/svg">
<path d="M14.096 1.78528L2.48828 20.2156" stroke="#5661CB" stroke-width="1.63333" stroke-linecap="round" stroke-linejoin="round"/>
<path d="M2.21873 7.14218C1.08545 6.14253 1.08545 4.52178 2.21873 3.52212V3.52212C3.352 2.52247 5.18941 2.52247 6.32268 3.52212V3.52212C7.45596 4.52177 7.45596 6.14253 6.32268 7.14218V7.14218C5.18941 8.14183 3.352 8.14183 2.21873 7.14218V7.14218Z" stroke="#5661CB" stroke-width="1.63333" stroke-linecap="round" stroke-linejoin="round"/>
<path d="M10.3442 18.4781C9.21094 17.4785 9.21094 15.8577 10.3442 14.8581V14.8581C11.4775 13.8584 13.3149 13.8584 14.4482 14.8581V14.8581C15.5814 15.8577 15.5814 17.4785 14.4482 18.4781V18.4781C13.3149 19.4778 11.4775 19.4778 10.3442 18.4781V18.4781Z" stroke="#5661CB" stroke-width="1.63333" stroke-linecap="round" stroke-linejoin="round"/>
</svg>
