<svg width="67" height="72" viewBox="0 0 67 72" fill="none" xmlns="http://www.w3.org/2000/svg">
<g clip-path="url(#clip0_29_776)">
<path d="M66.4998 69.2C66.1998 68.4 64.0998 63.4 61.5998 59.8C60.6998 58.5 59.7998 57.4 58.7998 56.8C57.3998 55.8 55.0998 55.1 53.3998 54.6C52.9998 54.5 52.6998 54.4 52.2998 54.3L51.7998 54C50.3998 53.6 50.3998 53.6 48.2998 52.9L47.7998 52.8C44.9998 51.9 42.4998 51.1 41.1998 50.8V45.1C42.6998 43.5 48.2998 37 49.5998 28C49.6998 27.6 49.6998 27.1 49.7998 26.7C51.3998 25.9 52.3998 24.9 52.8998 23.7C53.9998 21.2 52.3998 18.9 51.6998 18C51.4998 14.9 50.6998 9.4 46.8998 5.3C43.6998 1.8 39.0998 0 33.1998 0C28.2998 0 24.2998 1.5 21.2998 4.6C17.0998 8.9 15.9998 15 15.7998 18.1C14.9998 19 13.3998 21.2 14.3998 23.6C14.8998 24.8 15.8998 25.8 17.4998 26.6C17.4998 27 17.5998 27.5 17.5998 28C17.5998 28.2 17.5998 28.4 17.6998 28.6C18.8998 38.9 23.5998 43.8 25.2998 45.1V50.7C21.0998 51.9 8.49982 55.7 6.19982 57.9C6.19982 57.9 6.19982 58 6.09982 58C2.49982 61.6 0.199824 69.6 0.0998236 69.9C-0.100176 70.6 0.299824 71.3 0.999824 71.4C1.09982 71.5 1.19982 71.5 1.39982 71.5C1.99982 71.5 2.49982 71.1 2.59982 70.6C2.69982 70.5 4.89982 62.8 7.99982 59.5C8.59982 58.9 10.7998 57.9 13.5998 56.9V70.9C13.5998 71.4 13.9998 71.8 14.4998 71.8C14.9998 71.8 15.3998 71.4 15.3998 70.9V56.3C16.1998 56 17.0998 55.7 17.8998 55.4V70.9C17.8998 71.4 18.2998 71.8 18.7998 71.8C19.3998 71.8 19.6998 71.4 19.6998 70.9V54.9C22.1998 54.1 24.7998 53.3 26.8998 52.8C27.4998 52.7 27.7998 52.2 27.7998 51.6V44.5C27.7998 44.1 27.5998 43.8 27.1998 43.5C27.0998 43.5 21.4998 39.4 20.0998 28.3C20.0998 28.1 20.0998 27.9 19.9998 27.7C23.3998 28.6 27.9998 29 33.9998 29C39.5998 29 43.9998 28.6 47.0998 27.7C45.5998 36.9 39.0998 43.6 38.9998 43.7C38.7998 43.9 38.5998 44.3 38.5998 44.6V51.8C38.5998 52.4 38.9998 52.8 39.4998 53C39.4998 53 42.9998 54.1 46.8998 55.3V71C46.8998 71.5 47.2998 71.9 47.7998 71.9C48.3998 71.9 48.6998 71.5 48.6998 71V55.7C49.5998 56 49.8998 56.1 50.8998 56.4L51.2998 56.5V70.9C51.2998 71.4 51.6998 71.8 52.1998 71.8C52.6998 71.8 53.0998 71.4 53.0998 70.9V57.1C54.5998 57.6 56.2998 58.2 57.2998 58.8C59.6998 60.4 63.0998 67.5 64.0998 70.1C64.2998 70.5 64.6998 70.8 65.1998 70.8C65.2998 70.8 65.4998 70.8 65.6998 70.7C66.4998 70.6 66.7998 69.8 66.4998 69.2ZM16.5998 22.7C15.9998 21.3 17.7998 19.4 17.7998 19.4C18.0998 19.1 18.1998 18.7 18.1998 18.2C18.4998 15.4 19.4998 9.9 23.0998 6.2C24.4998 4.8 26.0998 3.8 28.0998 3.1V8C28.0998 8.5 28.4998 8.9 28.9998 8.9C29.5998 8.9 29.8998 8.5 29.8998 8V2.8C30.6998 2.7 31.4998 2.6 32.3998 2.5V9.4C32.3998 9.9 32.7998 10.3 33.2998 10.3C33.8998 10.3 34.1998 9.9 34.1998 9.4V2.5C34.9998 2.5 35.7998 2.6 36.4998 2.7V8C36.4998 8.5 36.8998 8.9 37.3998 8.9C37.8998 8.9 38.2998 8.5 38.2998 8V3.1C40.9998 3.8 43.1998 5.1 44.8998 6.9C48.2998 10.6 48.8998 15.8 48.9998 18.5H49.0998C49.0998 18.8 49.1998 19.1 49.3998 19.4C49.4998 19.4 51.0998 21.2 50.4998 22.7C49.9998 23.9 47.3998 26.5 33.8998 26.5C19.6998 26.6 17.0998 23.9 16.5998 22.7Z" fill="white"/>
<path d="M46.2001 20.1C46.1001 19.6 45.6001 19.2 45.1001 19.4C37.7001 20.9 30.1001 20.9 22.7001 19.5L22.1001 19.4C21.5001 19.3 21.1001 19.6 21.0001 20.1C20.9001 20.7 21.2001 21.1 21.7001 21.2L22.3001 21.3C26.0001 22 29.8001 22.4 33.6001 22.4C37.6001 22.4 41.5001 22 45.5001 21.2C46.0001 21 46.3001 20.5 46.2001 20.1Z" fill="white"/>
</g>
<defs>
<clipPath id="clip0_29_776">
<rect width="66.6" height="71.9" fill="white"/>
</clipPath>
</defs>
</svg>
