<svg width="66" height="63" viewBox="0 0 66 63" fill="none" xmlns="http://www.w3.org/2000/svg">
<g clip-path="url(#clip0_29_789)">
<path d="M30.8 47.5H1.1C0.5 47.5 0 48 0 48.6V61.5C0 62.1 0.5 62.6 1.1 62.6H30.9C31.5 62.6 32 62.1 32 61.6V48.6C32 48 31.4 47.5 30.8 47.5ZM29.7 60.4001H2.2V49.7001H29.8C29.8 49.7001 29.8 60.4001 29.7 60.4001V60.4001ZM64.6 47.5H34.9C34.3 47.5 33.8 48 33.8 48.6V61.5C33.8 62.1 34.3 62.6 34.9 62.6H64.7C65.3 62.6 65.8 62.1 65.8 61.6V48.6C65.8 48 65.3 47.5 64.6 47.5ZM63.5 60.4001H36V49.7001H63.6L63.5 60.4001V60.4001ZM18.2 30.8C17.6 30.8 17.1 31.3 17.1 31.9V44.8C17.1 45.4 17.6 45.9001 18.2 45.9001H48C48.6 45.9001 49.1 45.4 49.1 44.8V31.9C49.1 31.3 48.6 30.8 48 30.8H18.2V30.8ZM19.3 43.7001V33H46.9L47 43.7001H19.3Z" fill="white"/>
<path d="M20.3998 25C20.9998 25.8 21.8998 26.3 22.8998 26.3C23.8998 26.3 24.8998 25.7 25.3998 24.9L28.4998 19.7L30.2998 20.8C30.3998 20.9 30.5998 20.9 30.6998 20.9C30.9998 20.9 31.1998 20.7 31.3998 20.5L31.8998 19.6H31.9998L44.4998 21.6L43.5998 22.8C43.3998 23 43.2998 23.2 43.2998 23.7C43.2998 24 43.5998 24.1 43.7998 24.3L58.1998 34.8C58.3998 34.9 58.5998 35 58.8998 35C59.2998 35 59.5998 34.9 59.7998 34.6L63.6998 29.2C63.8998 29 64.0998 28.5 63.9998 28.2C63.8998 27.9 63.7998 27.8 63.5998 27.6L49.1998 17.3C48.6998 17 47.9998 17.1 47.6998 17.5L46.0998 19.7L33.2998 17.7L33.4998 17.3C33.5998 17.1 33.6998 16.8 33.5998 16.6C33.4998 16.4 33.3998 16.3 33.1998 16.2L31.3998 15L34.2998 10.2C34.8998 9.4 34.8998 8.4 34.5998 7.5C34.1998 6.6 33.4998 6 32.5998 5.7L9.5998 0.0999993C8.4998 -0.200001 7.2998 0.199999 6.6998 1.2C5.8998 2.2 5.8998 3.5 6.6998 4.5L20.3998 25ZM48.8998 19.7L61.4998 28.9L58.8998 32.4L46.1998 23.2L48.8998 19.7ZM31.6998 17.1L30.4998 18.9L29.0998 18L24.1998 14.9C23.6998 14.6 23.5998 14 23.8998 13.5L23.9998 13.3C24.2998 12.8 24.8998 12.7 25.3998 13L31.6998 17.1ZM8.3998 2.4C8.4998 2.3 8.6998 2.2 8.7998 2.2H8.9998L31.8998 7.8C32.0998 7.8 32.3998 8 32.4998 8.2C32.5998 8.4 32.5998 8.7 32.3998 8.9L29.4998 13.7L26.0998 11.5C24.9998 10.8 23.4998 11.1 22.7998 12.2L22.3998 12.8C22.0998 13.4 21.9998 14.1 22.0998 14.6C22.2998 15.2 22.4998 15.7 23.1998 16.1L26.8998 18.4L23.6998 23.6C23.5998 23.8 23.2998 24 22.9998 24C22.6998 24 22.4998 23.9 22.2998 23.7L8.3998 3.2C8.1998 3 8.1998 2.7 8.3998 2.4ZM24.1998 34.5L21.7998 36.9C21.4998 37.2 21.4998 37.7 21.7998 38C21.8998 38.1 22.0998 38.2 22.2998 38.2C22.4998 38.2 22.6998 38.2 22.8998 38L25.2998 35.6C25.5998 35.3 25.5998 34.8 25.2998 34.5C24.9998 34.2 24.4998 34.2 24.1998 34.5ZM24.1998 38.1L21.7998 40.5C21.4998 40.8 21.4998 41.3 21.7998 41.6C21.8998 41.7 22.0998 41.8 22.2998 41.8C22.4998 41.8 22.6998 41.7 22.8998 41.6L25.2998 39.2C25.5998 38.9 25.5998 38.4 25.2998 38.1C24.9998 37.8 24.4998 37.8 24.1998 38.1ZM5.3998 55.1C5.5998 55.1 5.7998 55.1 5.8998 55L8.2998 52.6C8.5998 52.3 8.5998 51.8 8.2998 51.5C7.9998 51.2 7.4998 51.2 7.1998 51.5L4.8998 53.8C4.5998 54.1 4.5998 54.6 4.8998 54.9C4.9998 55 5.1998 55.1 5.3998 55.1ZM5.3998 58.7C5.5998 58.7 5.7998 58.6 5.8998 58.5L8.2998 56.1C8.5998 55.8 8.5998 55.3 8.2998 55C7.9998 54.7 7.4998 54.7 7.1998 55L4.8998 57.4C4.5998 57.7 4.5998 58.2 4.8998 58.5C4.9998 58.6 5.1998 58.7 5.3998 58.7ZM39.3998 55.1C39.5998 55.1 39.7998 55.1 39.9998 54.9L42.3998 52.5C42.6998 52.2 42.6998 51.7 42.3998 51.4C42.0998 51.1 41.5998 51.1 41.2998 51.4L38.8998 53.8C38.5998 54.1 38.5998 54.6 38.8998 54.9C38.9998 55 39.1998 55.1 39.3998 55.1ZM39.3998 58.7C39.5998 58.7 39.7998 58.6 39.9998 58.5L42.3998 56.1C42.6998 55.8 42.6998 55.3 42.3998 55C42.0998 54.7 41.5998 54.7 41.2998 55L38.8998 57.4C38.5998 57.7 38.5998 58.2 38.8998 58.5C38.9998 58.6 39.1998 58.7 39.3998 58.7Z" fill="white"/>
</g>
<defs>
<clipPath id="clip0_29_789">
<rect width="65.8" height="62.6" fill="white"/>
</clipPath>
</defs>
</svg>
