<svg width="84" height="64" viewBox="0 0 84 64" fill="none" xmlns="http://www.w3.org/2000/svg">
<g clip-path="url(#clip0_29_771)">
<path d="M63.1998 30C62.3998 30.1 61.7998 30.7 61.7998 31.4C61.7998 32.1 62.3998 32.7 63.1998 32.7C63.1998 32.7 65.4998 32.8 69.4998 36.8L70.9998 38.3H63.3998C62.5998 38.3 61.9998 38.9 61.9998 39.7C61.9998 40.5 62.5998 41.1 63.3998 41.1H77.2998L75.2998 38.8C75.1998 38.7 74.7998 38.2 71.3998 34.9C66.5998 30.1 63.4998 30 63.1998 30V30Z" fill="white"/>
<path d="M83.8 39.1L75.3 30.6C70.4 25 64.1 24.1 59.3 23.9V0H0V54.2H5.9C5.8 54.8 5.8 55.3 5.8 55.9C5.8 60.4 9.5 64 13.9 64C18.4 64 22 60.3 22 55.9C22 55.3 21.9 54.8 21.9 54.2H51.4C51.3 54.8 51.3 55.3 51.3 55.9C51.3 60.4 55 64 59.4 64C63.8 64 67.5 60.3 67.5 55.9C67.5 55.3 67.4 54.7 67.3 54.2H83.7V39.1H83.8ZM13.9 61.2C10.9 61.2 8.5 58.8 8.5 55.8C8.5 55.2 8.6 54.7 8.8 54.1C9.1 53 9.9 52 10.9 51.3C11.8 50.7 12.8 50.3 13.9 50.3C15 50.3 16.1 50.6 16.9 51.3C17.9 52 18.6 53 19 54.1C19.1 54.7 19.3 55.2 19.3 55.8C19.3 58.8 16.9 61.2 13.9 61.2ZM52.5 51.4H20.8C19.4 49.2 16.8 47.7 14 47.7C11.2 47.7 8.6 49.2 7.2 51.4H2.8V2.8H56.6V48.2C54.9 48.8 53.5 49.9 52.5 51.4V51.4ZM59.4 61.2C56.4 61.2 54 58.8 54 55.8C54 55.2 54.1 54.7 54.3 54.1C54.6 53 55.4 52 56.4 51.3C57.3 50.7 58.3 50.3 59.4 50.3C60.5 50.3 61.5 50.6 62.4 51.2C63.4 51.8 64.1 52.9 64.5 54C64.7 54.6 64.8 55.1 64.8 55.7C64.7 58.8 62.3 61.2 59.4 61.2ZM80.9 51.4H66.1C64.7 49.2 62.2 47.7 59.3 47.7H59.2V26.7C65.5 26.9 69.8 28.7 73.1 32.5L80.8 40.3V51.4H80.9Z" fill="white"/>
</g>
<defs>
<clipPath id="clip0_29_771">
<rect width="83.8" height="64" fill="white"/>
</clipPath>
</defs>
</svg>
