<svg width="16" height="19" viewBox="0 0 16 19" fill="none" xmlns="http://www.w3.org/2000/svg">
<path d="M5.94286 0.228516C7.519 0.228516 9.03059 0.953026 10.1451 2.24266C11.2596 3.5323 11.8857 5.28143 11.8857 7.10525C11.8857 8.80857 11.3463 10.3743 10.4594 11.5804L10.7063 11.8661H11.4286L16 17.1559L14.6286 18.7428L10.0571 13.453V12.6172L9.81029 12.3316C8.73193 13.3967 7.36065 13.9819 5.94286 13.982C4.36671 13.982 2.85512 13.2575 1.74062 11.9678C0.62612 10.6782 0 8.92907 0 7.10525C0 5.28143 0.62612 3.5323 1.74062 2.24266C2.85512 0.953026 4.36671 0.228516 5.94286 0.228516ZM5.94286 2.34443C3.65714 2.34443 1.82857 4.46035 1.82857 7.10525C1.82857 9.75015 3.65714 11.8661 5.94286 11.8661C8.22857 11.8661 10.0571 9.75015 10.0571 7.10525C10.0571 4.46035 8.22857 2.34443 5.94286 2.34443Z" fill="white"/>
</svg>
