<svg width="17" height="17" viewBox="0 0 17 17" fill="none" xmlns="http://www.w3.org/2000/svg">
<path d="M10.476 16.189C10.3442 16.1538 10.2165 16.1044 10.0951 16.0418C7.77526 14.8805 5.82617 13.0791 4.47217 10.845C3.15771 8.61719 2.50858 6.05115 2.60334 3.45735C2.61875 3.13503 2.71577 2.82216 2.88506 2.54883C3.05434 2.2755 3.29021 2.05091 3.56995 1.89667L5.53173 0.781147C5.63158 0.725533 5.74188 0.691879 5.85543 0.68238C5.96899 0.672881 6.08324 0.687752 6.19074 0.72602C6.30158 0.768141 6.40196 0.834353 6.48484 0.92C6.56771 1.00565 6.63105 1.10865 6.67042 1.22176L7.87598 4.67534C7.92021 4.80867 7.92103 4.95287 7.87832 5.0867C7.83562 5.22054 7.75163 5.33696 7.63874 5.41881L6.34805 6.35088C6.51399 7.33335 6.86481 8.27433 7.38141 9.12259C7.88733 9.99387 8.55344 10.7588 9.34367 11.3759L10.8155 10.7165C10.939 10.6615 11.0761 10.6459 11.2086 10.6718C11.341 10.6977 11.4626 10.7638 11.5571 10.8613L14.0189 13.5817C14.1047 13.6699 14.1697 13.7768 14.2089 13.8941C14.2482 14.0114 14.2608 14.1362 14.2457 14.2592C14.2306 14.3821 14.1882 14.5 14.1218 14.604C14.0553 14.708 13.9665 14.7954 13.862 14.8597L11.9384 15.9895C11.7196 16.1188 11.4778 16.203 11.2268 16.2372C10.9759 16.2715 10.7207 16.2551 10.476 16.189ZM5.92572 1.4961L3.96395 2.61163C3.80677 2.69764 3.67439 2.82363 3.57984 2.97721C3.48529 3.13078 3.43181 3.30664 3.42467 3.4875C3.33119 5.92022 3.93506 8.32831 5.1633 10.4208C6.43763 12.5228 8.27196 14.2174 10.4551 15.3095C10.6202 15.3926 10.8031 15.4329 10.9874 15.4267C11.1717 15.4206 11.3516 15.3682 11.511 15.2743L13.4346 14.1444L11.0573 11.5185L9.47586 12.2296C9.41539 12.2566 9.34932 12.2681 9.28342 12.2633C9.21751 12.2585 9.15377 12.2374 9.09776 12.2019C8.11471 11.5089 7.29495 10.6043 6.6971 9.55288C6.06077 8.53519 5.65946 7.38504 5.5231 6.18825C5.52243 6.1178 5.53966 6.04836 5.57314 5.98661C5.60662 5.92486 5.65522 5.87287 5.71426 5.83566L7.10295 4.83189L5.92572 1.4961Z" fill="#5661CB"/>
</svg>
